<svg width="161" height="70" viewBox="0 0 161 70" fill="none" xmlns="http://www.w3.org/2000/svg">
<path d="M15.1115 45.4803H17.2476V36.0111H29.5976V34.1722H17.2476V26.6335H29.8754V24.7956H15.1115V45.4803ZM37.6754 35.1843C37.6754 40.9758 42.8754 45.7562 49.005 45.7562C54.9486 45.7562 60.3337 41.1591 60.3337 35C60.3337 28.8409 54.9476 24.3354 48.9115 24.3354C43.2476 24.3354 37.6754 28.6566 37.6754 35.1843V35.1843ZM39.8115 35.1843C39.8115 30.0353 44.1754 26.2659 49.005 26.2659C54.018 26.2659 58.1976 30.3112 58.1976 35.1843C58.1976 40.148 53.9254 44.01 49.0041 44.01C43.9902 43.9174 39.8115 39.9647 39.8115 35.1843V35.1843ZM70.918 45.4803H73.0541V26.6335H80.205C81.9699 26.6335 83.0837 26.8178 84.3837 27.4613C85.7773 28.1048 86.705 29.852 86.705 31.4149C86.705 33.2528 85.4986 35.1843 83.1763 35.8278C82.2486 36.1037 80.7624 36.1037 77.9763 36.1037L85.7763 45.4803H88.4699L82.4337 37.7583C86.6124 37.4824 88.7486 34.4482 88.7486 31.4149C88.7486 28.8409 87.355 26.6345 84.9412 25.5317C83.918 25.0706 82.5245 24.7021 79.6467 24.7021H70.8254V45.4794H70.9189L70.918 45.4803ZM98.7754 45.4803H114.469V43.6424H100.912V36.012H114.098V34.1732H100.912V26.6345H114.469V24.7956H98.7754V45.4803V45.4803ZM122.454 35.1843C122.454 40.9758 127.654 45.7562 133.783 45.7562C139.725 45.7562 145.112 41.1591 145.112 35C145.112 28.8409 139.819 24.2438 133.783 24.2438C128.119 24.3354 122.454 28.6566 122.454 35.1843ZM124.59 35.1843C124.59 30.0353 128.954 26.2659 133.783 26.2659C138.798 26.2659 142.975 30.3112 142.975 35.1843C142.975 40.148 138.704 44.01 133.783 44.01C128.769 43.9174 124.59 39.9647 124.59 35.1843V35.1843Z" fill="#4D453F"/>
</svg>
