<?xml version="1.0" encoding="UTF-8"?>
<svg xmlns="http://www.w3.org/2000/svg" width="160" height="32" viewBox="0 0 160 32" fill="none">
  <path d="M72.0802 16.0922C72.0802 22.2553 68.3792 25.1788 63.7464 25.1788H60.9253V21.4652H63.5393C66.3345 21.4652 68.198 19.9376 68.198 16.0658C68.198 12.2468 66.438 10.3505 63.4617 10.3505C60.5888 10.3505 58.5442 12.1415 58.5442 15.9868V31.4737H54.6619V7.13721H58.5183V9.24427H59.0618C60.3559 7.47961 62.2452 6.68946 64.2381 6.68946C68.5086 6.68946 72.0802 9.85004 72.0802 16.0922ZM46.7163 14.4856L44.154 14.2222C42.1352 14.0378 41.0741 13.4847 41.0741 12.2732C41.0741 10.8509 42.4458 10.0344 44.3869 10.0344C46.4057 10.0344 47.6998 11.0089 47.8033 12.3785H51.5044C51.3491 8.84919 48.6833 6.68946 44.4128 6.68946C40.1165 6.68946 37.2177 9.00722 37.2177 12.4048C37.2177 15.2494 38.9777 17.093 42.9893 17.4881L45.6034 17.7515C47.1821 17.9095 48.2433 18.2256 48.2433 19.7795C48.2433 21.1754 47.2598 22.1763 44.6457 22.1763C42.2388 22.1763 41.0482 21.0701 40.6341 19.5688H36.6225C37.0107 22.9664 39.8318 25.6003 44.6457 25.6003C49.175 25.6003 52.0996 23.1771 52.0996 19.5688C52.0738 16.4346 50.0291 14.8016 46.7163 14.4856ZM87.0139 19.5952C86.4186 21.0174 84.9693 22.0709 82.8987 22.0709C80.0777 22.0709 77.9812 20.2009 77.9812 16.1712C77.9812 12.3258 79.9224 10.1924 82.9505 10.1924C85.6422 10.1924 87.1692 11.8254 87.3245 14.3012H80.3882V17.1457H91.1291V15.2757C91.1291 10.0871 87.7386 6.7158 82.9246 6.7158C78.4471 6.7158 74.1508 9.8237 74.1508 16.1712C74.1508 22.5187 78.4471 25.6266 82.9246 25.6266C87.0139 25.6266 89.9644 23.0455 90.8703 19.5952H87.0139ZM26.1663 6.68946C21.9476 6.68946 18.79 8.92821 18.4018 12.3785H22.5429C22.8276 11.1143 23.9664 10.1661 26.1404 10.1661C28.9356 10.1661 29.8415 11.6674 29.8415 13.4847V19.6478C28.2627 21.4915 26.4251 22.3343 24.5875 22.3343C22.6723 22.3343 21.3523 21.3862 21.3523 19.7268C21.3523 18.1202 22.3876 17.1194 24.3546 17.1194H27.4345V14.3012H24.2252C19.8253 14.3012 17.3407 16.5399 17.3407 19.9902C17.3407 23.2035 19.7218 25.6266 23.6558 25.6266C25.8557 25.6266 27.7968 24.7311 29.2462 23.6512H29.7897V25.1788H33.6461V13.1423C33.7496 8.69116 30.7732 6.68946 26.1663 6.68946ZM0 25.1788H3.85636V0.5H0V25.1788ZM16.2019 7.13721H11.4914L5.87512 14.6699V17.014L11.6467 25.1788H16.4348L9.65383 15.8288L16.2019 7.13721ZM155.73 7.13721L152.572 14.2749C151.796 15.9868 151.071 17.6725 150.838 18.805H150.294C150.061 17.6725 149.311 16.0395 148.534 14.3275L145.377 7.13721H141.106L148.534 23.3352L144.859 31.5H148.974L160 7.13721H155.73ZM140.252 7.13721H135.542L129.926 14.6436V16.9877L135.697 25.1525H140.485L133.73 15.8025L140.252 7.13721ZM116.079 14.4856L113.517 14.2222C111.498 14.0378 110.437 13.4847 110.437 12.2732C110.437 10.8509 111.808 10.0344 113.75 10.0344C115.768 10.0344 117.062 11.0089 117.166 12.3785H120.867C120.712 8.84919 118.046 6.68946 113.775 6.68946C109.479 6.68946 106.58 9.00722 106.58 12.4048C106.58 15.2494 108.34 17.093 112.352 17.4881L114.966 17.7515C116.545 17.9095 117.606 18.2256 117.606 19.7795C117.606 21.1754 116.622 22.1763 114.008 22.1763C111.601 22.1763 110.411 21.0701 109.997 19.5688H105.985C106.373 22.9664 109.194 25.6003 114.008 25.6003C118.538 25.6003 121.462 23.1771 121.462 19.5688C121.462 16.4346 119.392 14.8016 116.079 14.4856ZM124.05 25.1788H127.907V0.5H124.05V25.1788ZM98.583 9.24427H98.0395V7.13721H94.1831V25.1788H98.0395V15.7498C98.0395 12.5365 99.4888 10.6665 102.388 10.6665H104.82V6.68946H103.397C100.731 6.68946 99.5924 7.71665 98.583 9.24427Z" fill="#4D453F"></path>
</svg>
