<?xml version="1.0" encoding="UTF-8"?>
<svg xmlns="http://www.w3.org/2000/svg" width="160" height="71" viewBox="0 0 160 71" fill="none">
  <path d="M154.068 44.9605C152.487 44.9935 150.906 45.0132 149.324 45.0594C148.718 45.0791 148.56 44.7036 148.415 44.2292C147.196 40.2494 145.957 36.2696 144.725 32.2898C144.653 32.0592 144.587 31.8286 144.508 31.6046C144.066 30.3592 143.789 30.155 142.432 30.1155C141.753 30.0957 141.081 30.1155 140.33 30.1155C140.31 30.4383 140.278 30.6953 140.278 30.9457C140.278 35.3537 140.258 39.7618 140.297 44.1699C140.297 44.8617 140.073 45.0396 139.421 45.0198C138.202 44.9803 136.983 45.0067 135.724 45.0067V27.8291C135.81 27.7763 135.856 27.7236 135.902 27.7236C139.039 27.75 142.182 27.7236 145.318 27.8356C146.899 27.8884 148.165 28.7186 148.784 30.155C149.529 31.8945 150.128 33.6999 150.728 35.4921C151.604 38.1014 152.428 40.7238 153.278 43.3396C153.357 43.5768 153.482 43.7943 153.647 44.1567C153.851 43.847 153.956 43.6823 154.068 43.5175V44.9605Z" fill="#4D453F"></path>
  <path d="M38.2067 37.225C37.4029 38.1409 36.7044 38.9711 35.9665 39.775C33.1464 42.8389 29.9704 45.3888 25.8128 46.5287C25.3713 46.6473 24.9167 46.7923 24.462 46.812C21.8462 46.924 20.8512 45.4613 21.2136 42.852C21.352 41.8373 21.7935 40.8621 22.09 39.8672C22.2152 39.4521 22.3338 39.037 22.4589 38.6219L22.2217 38.4835C21.8659 38.7932 21.4969 39.0831 21.1609 39.406C19.9222 40.6052 18.7493 41.89 17.4381 43.0102C15.2044 44.921 12.6083 46.2322 9.66964 46.7461C6.96814 47.2206 5.65692 45.4613 5.97978 42.9772C6.2697 40.7501 7.16581 38.7141 8.35183 36.8033C8.70105 36.2366 9.03709 35.8808 9.90684 36.006C11.4421 36.2169 13.0103 36.1444 14.5653 36.2103C18.7098 36.3882 22.8543 36.5793 26.9988 36.7572C29.3181 36.856 31.6375 36.9219 33.9568 37.0141C35.3076 37.0669 36.6583 37.1525 38.2067 37.2316V37.225Z" fill="#4D453F"></path>
  <path d="M9.6236 34.9189C10.1968 34.1611 10.6976 33.4825 11.2181 32.8236C13.7352 29.6674 16.6673 26.9659 20.3571 25.1869C21.5959 24.5873 23.0191 24.2117 24.3962 24.0536C26.0369 23.8625 27.0779 24.8904 27.2229 26.4981C27.3547 27.9345 27.0845 29.3116 26.531 30.6426C26.3004 31.2027 26.1291 31.7825 25.9051 32.415C26.7814 32.5139 27.1504 31.9406 27.5853 31.5058C28.6461 30.4317 29.6147 29.2589 30.7612 28.2837C33.0608 26.3268 35.558 24.6729 38.6483 24.0931C40.8292 23.6846 42.1866 24.6268 42.3381 26.7946C42.4765 28.7977 41.6924 30.5965 40.994 32.4282C40.6184 33.4166 40.0188 33.667 38.9711 33.6933C34.1743 33.8317 29.3775 34.0755 24.5807 34.2863C21.8858 34.4049 19.1843 34.5169 16.4894 34.629C14.2623 34.7212 12.0352 34.8135 9.6236 34.9123V34.9189Z" fill="#4D453F"></path>
  <path d="M123.759 45.2833C118.58 45.2701 114.402 41.2442 114.409 36.2695C114.416 31.2882 118.672 27.1898 123.831 27.2227C129.3 27.2557 133.227 31.4397 133.227 36.197C133.227 40.493 129.735 45.3426 123.759 45.2833ZM128.49 36.2431C128.641 34.5168 128.108 32.9222 127.073 31.4792C125.32 29.0347 122.237 29.0413 120.517 31.5056C119.219 33.3637 118.929 35.4393 119.219 37.6334C119.476 39.5706 120.28 41.2178 121.934 42.3775C123.232 43.2868 124.787 43.1418 125.992 42.1337C127.831 40.5919 128.621 38.6481 128.483 36.2497L128.49 36.2431Z" fill="#4D453F"></path>
  <path d="M80.4359 36.6319C80.4359 41.6594 76.2189 45.7775 70.9674 45.6655C65.8807 45.5601 61.6769 41.6791 61.6703 36.6385C61.6703 31.9669 65.459 27.5457 71.1321 27.572C76.4165 27.5984 80.4359 31.4991 80.4359 36.6319ZM75.7445 36.566C75.8433 34.9715 75.4084 33.4758 74.5321 32.1053C72.6344 29.16 69.676 29.2588 67.6795 31.9142C67.5345 32.1053 67.4225 32.3227 67.2973 32.5336C66.3156 34.1874 66.3156 35.9928 66.4539 37.8245C66.5725 39.3993 67.1787 40.7698 68.2857 41.9163C70.1438 43.8403 72.5092 43.7151 74.1631 41.6067C75.3294 40.1307 75.8301 38.4505 75.7379 36.5595L75.7445 36.566Z" fill="#4D453F"></path>
  <path d="M87.7958 41.2376V45.4283C86.2671 45.4283 84.8044 45.4283 83.3416 45.4283C82.7222 45.4283 82.8606 44.9275 82.8606 44.598C82.8408 42.7267 82.854 40.8621 82.8606 38.9908C82.8606 35.8412 82.8738 32.6851 82.8804 29.5355C82.8804 29.1138 82.8804 28.6855 82.8804 28.1782C82.9726 28.1518 83.1439 28.053 83.3153 28.053C85.885 28.053 88.4481 28.0003 91.0178 28.0793C93.6864 28.1584 95.7685 29.2851 96.8359 31.7758C97.9758 34.4246 97.7452 36.9613 95.8146 39.2016C94.6484 40.5524 93.1 41.231 91.2748 41.2442C90.1547 41.2508 89.0411 41.2442 87.8024 41.2442L87.7958 41.2376ZM87.8156 38.8524C90.1613 39.1687 91.6174 38.5757 92.5531 36.9745C93.4953 35.3536 93.3569 33.0013 92.2236 31.5979C91.2484 30.3855 89.5353 29.8979 87.8156 30.3723V38.859V38.8524Z" fill="#4D453F"></path>
  <path d="M113.493 30.7546C111.279 28.7779 108.011 29.417 106.285 31.262C103.412 34.3324 103.735 39.4785 107.049 42.0746C108.96 43.5703 111.18 43.6164 113.157 42.1997C113.243 42.1404 113.335 42.0943 113.506 41.9955C113.506 42.8784 113.533 43.6889 113.486 44.4927C113.48 44.6575 113.21 44.921 113.032 44.9474C109.013 45.5931 105.132 45.5799 102.12 42.3118C99.7088 39.6959 98.9511 36.632 100.216 33.3177C101.488 29.9903 104.011 27.9674 107.662 27.4469C109.533 27.1768 111.358 27.4205 113.137 28.0531C114.574 28.567 114.646 28.712 113.928 30.0034C113.796 30.2341 113.658 30.4581 113.486 30.748L113.493 30.7546Z" fill="#4D453F"></path>
  <path d="M51.4968 45.2635V30.6227C49.6651 30.6227 47.9519 30.5898 46.2388 30.6425C45.5799 30.6622 45.3427 30.4514 45.3625 29.8386C45.3822 29.2785 45.3625 28.7251 45.3625 28.0793H61.868C61.868 28.7119 61.9141 29.3972 61.835 30.0626C61.8153 30.2274 61.3804 30.4646 61.13 30.4712C59.7661 30.5107 58.3956 30.5239 57.0382 30.4712C56.2409 30.4382 56.0037 30.7413 56.0103 31.4859C56.0301 35.7885 56.0037 40.0846 56.0367 44.3872C56.0367 45.112 55.8456 45.3163 55.1208 45.2767C53.9809 45.2174 52.8344 45.2635 51.4968 45.2635Z" fill="#4D453F"></path>
</svg>
