<svg width="160" height="70" viewBox="0 0 160 70" fill="none" xmlns="http://www.w3.org/2000/svg">
<g clip-path="url(#clip0_1581_2103)">
<path d="M28.0336 26.9498C26.492 26.9498 25.6064 26.3618 25.4021 25.2038V25.1644H22.6952V25.2182C23.0539 27.6526 25.04 29.0472 28.0946 29.0472C31.6584 29.0472 34.0496 26.645 34.0496 23.067V22.8878C34.0496 19.3026 31.6475 16.8181 28.2057 16.8181C26.7842 16.7667 25.3975 17.2648 24.3337 18.2091C23.2187 19.2559 22.6522 20.7833 22.6522 22.7516V23.5762H31.1994C31.0955 25.7488 29.9732 26.9428 28.0336 26.9428M25.4271 21.6868C25.567 19.8224 26.5027 18.8796 28.2129 18.8796C29.776 18.8796 30.8696 19.93 31.1492 21.6868H25.4271Z" fill="#272220"/>
<path d="M34.5014 29.2155C33.0798 29.1642 31.6932 29.6624 30.6293 30.6067C29.5143 31.6536 28.9479 33.1809 28.9479 35.1492V35.9738H37.4879C37.384 38.1464 36.2617 39.3402 34.3221 39.3402C32.7805 39.3402 31.8948 38.7524 31.6905 37.5943V37.555H28.9836V37.6086C29.3673 40.0466 31.3356 41.4556 34.3902 41.4556C37.9539 41.4556 40.3453 39.0534 40.3453 35.4754V35.2962C40.3453 31.711 37.9432 29.2265 34.5014 29.2265M31.7192 34.0809C31.859 32.2166 32.7948 31.2736 34.5014 31.2736C36.0645 31.2736 37.158 32.3241 37.4376 34.0809H31.7192Z" fill="#272220"/>
<path d="M28.2128 41.7711C26.7913 41.7197 25.4046 42.2178 24.3408 43.1621C23.2258 44.209 22.6593 45.7363 22.6593 47.7046V48.5293H31.1993C31.0954 50.702 29.9732 51.8958 28.0335 51.8958C26.4919 51.8958 25.6064 51.3078 25.402 50.1497V50.1104H22.6952V50.1642C23.0539 52.5986 25.0399 53.9932 28.0946 53.9932C31.6583 53.9932 34.0496 51.5911 34.0496 48.013V47.8338C34.0496 44.2486 31.6475 41.764 28.2056 41.764M25.427 46.6327C25.5669 44.7684 26.5026 43.822 28.2128 43.822C29.776 43.822 30.8695 44.8724 31.1492 46.6327H25.427Z" fill="#272220"/>
<path d="M16.0553 29.047C19.1099 29.047 21.0747 27.6488 21.4547 25.218V25.1644H18.7621V25.2037C18.5577 26.3617 17.6866 26.9496 16.1306 26.9496C14.191 26.9496 13.0688 25.7558 12.9648 23.5831H21.5013V22.7584C21.5013 20.7901 20.9348 19.2629 19.8198 18.216C18.756 17.2718 17.3692 16.7735 15.9477 16.8249C12.5058 16.8249 10.1038 19.3346 10.1038 22.8948V23.0739C10.1038 26.6592 12.4987 29.054 16.0624 29.054M13.015 21.69C13.2875 19.9261 14.3809 18.8684 15.9441 18.8684C17.6543 18.8684 18.59 19.8149 18.7298 21.6756L13.015 21.69Z" fill="#272220"/>
<path d="M27.7897 35.1528C27.7897 33.1845 27.2233 31.6572 26.1083 30.6103C25.0444 29.6661 23.6578 29.1678 22.2363 29.2192C18.7944 29.2192 16.3923 31.7289 16.3923 35.2891V35.4682C16.3923 39.0534 18.7873 41.4483 22.351 41.4483C25.4056 41.4483 27.3703 40.0501 27.7503 37.6193V37.5657H25.0507V37.605C24.8462 38.763 23.9751 39.3509 22.4191 39.3509C20.4795 39.3509 19.3573 38.1571 19.2533 35.9845H27.7897V35.1528ZM19.2964 34.0773C19.5761 32.3169 20.6695 31.27 22.2327 31.27C23.9428 31.27 24.8786 32.2165 25.0148 34.0773H19.2964Z" fill="#272220"/>
<path d="M15.9441 41.7711C12.5023 41.7711 10.1002 44.2808 10.1002 47.841V48.0201C10.1002 51.6053 12.4952 54.0003 16.0589 54.0003C19.1136 54.0003 21.0783 52.602 21.4583 50.1712V50.1176H18.7622V50.1569C18.5577 51.315 17.6866 51.9029 16.1306 51.9029C14.191 51.9029 13.0688 50.7091 12.9649 48.5364H21.5013V47.7118C21.5013 45.7435 20.9349 44.2162 19.8199 43.1693C18.756 42.225 17.3692 41.7268 15.9477 41.7782M13.0079 46.6326C13.2876 44.8722 14.381 43.8218 15.9441 43.8218C17.6543 43.8218 18.59 44.7682 18.7299 46.6326H13.0079Z" fill="#272220"/>
<path d="M15.1661 37.6123V37.5586H12.4736V37.598C12.2691 38.756 11.398 39.344 9.84205 39.344C7.90243 39.344 6.78023 38.15 6.67626 35.9774H15.2127V35.1528C15.2127 33.1845 14.6463 31.6572 13.5313 30.6103C12.4674 29.6661 11.0808 29.1678 9.65923 29.2192C6.2174 29.2192 3.81531 31.7289 3.81531 35.2891V35.4682C3.81172 39.0391 6.20655 41.4556 9.77031 41.4556C12.8249 41.4556 14.7897 40.0573 15.1697 37.6265M6.43611 34.0807C6.7158 32.3204 7.8092 31.2734 9.37238 31.2734C11.0825 31.2734 12.0183 32.22 12.1581 34.0807H6.43611Z" fill="#272220"/>
<path d="M67.5824 27.2545C65.7898 25.5802 63.3375 24.6946 60.4693 24.6946C54.152 24.6946 49.7386 29.2729 49.7386 35.8303V36.1565C49.7386 42.721 54.1306 47.1309 60.6736 47.1309C66.2845 47.1309 69.8985 44.5603 70.5904 40.0824L70.6207 39.8923H65.5332L65.5068 40.0283C65.1481 42.0934 63.5565 43.1439 60.7922 43.1439C57.3361 43.1439 55.3246 41.025 55.1131 37.178H70.6695V35.5898C70.6695 31.9794 69.6332 29.1762 67.5824 27.2545ZM55.2207 33.5677C55.7513 30.4163 57.6551 28.6164 60.4731 28.6164C63.5062 28.6164 65.1841 30.2837 65.4567 33.5677H55.2207Z" fill="#272220"/>
<path d="M82.0739 33.5143C78.7791 32.9586 77.8254 32.3849 77.8254 30.9544C77.8254 29.5239 79.0552 28.5989 81.0343 28.5989C83.1854 28.5989 84.2609 29.4092 84.6517 31.3129L84.6819 31.4455H89.5508L89.528 31.2626C89.0476 26.9066 86.1902 24.6945 81.0346 24.6945C79.0554 24.6523 77.1109 25.2179 75.4631 26.315C74.6605 26.8586 74.0061 27.5937 73.5592 28.4538C73.1122 29.3139 72.8867 30.272 72.9032 31.2412C72.9032 35.21 74.9505 36.9453 80.7227 37.8668C84.0606 38.4296 85.1362 39.1036 85.1362 40.6309C85.1362 42.377 83.9745 43.1871 81.4828 43.1871C78.8943 43.1871 77.6788 42.212 77.4207 39.921V39.774H72.4515V39.946C72.656 44.5136 75.9614 47.1165 81.515 47.1165C87.0685 47.1165 90.1734 44.5817 90.1734 40.1647C90.1734 35.6365 87.2012 34.292 82.0671 33.4997" fill="#272220"/>
<path d="M101.596 33.5143C98.3007 32.9586 97.3471 32.3849 97.3471 30.9544C97.3471 29.5239 98.5768 28.5989 100.556 28.5989C102.707 28.5989 103.783 29.4092 104.173 31.3129L104.204 31.4455H109.072L109.05 31.2626C108.569 26.9066 105.712 24.6945 100.556 24.6945C98.5771 24.6522 96.6325 25.2179 94.9848 26.315C94.1822 26.8586 93.5278 27.5937 93.0808 28.4538C92.6338 29.3139 92.4084 30.272 92.4249 31.2412C92.4249 35.21 94.4721 36.9453 100.244 37.8668C103.582 38.4296 104.658 39.1036 104.658 40.6309C104.658 42.377 103.496 43.1871 101.004 43.1871C98.4159 43.1871 97.2005 42.212 96.9423 39.921V39.774H91.9696V39.946C92.1741 44.5136 95.4795 47.1165 101.033 47.1165C106.587 47.1165 109.691 44.5817 109.691 40.1647C109.691 35.6365 106.719 34.292 101.585 33.4997" fill="#272220"/>
<path d="M115.098 16.0004C114.696 15.9908 114.296 16.0617 113.922 16.2087C113.548 16.3556 113.207 16.5758 112.919 16.8563C112.631 17.1368 112.402 17.472 112.246 17.8421C112.089 18.2123 112.008 18.61 112.007 19.0119C112.061 19.7943 112.409 20.5273 112.982 21.0626C113.555 21.5979 114.31 21.8957 115.094 21.8957C115.878 21.8957 116.633 21.5979 117.206 21.0626C117.779 20.5273 118.128 19.7943 118.181 19.0119C118.18 18.6106 118.099 18.2136 117.943 17.8439C117.787 17.4742 117.559 17.1393 117.272 16.8589C116.984 16.5784 116.644 16.3582 116.271 16.2107C115.898 16.0633 115.499 15.9918 115.098 16.0004Z" fill="#272220"/>
<path d="M112.703 46.7259H117.618H117.783V46.5609V25.3076V25.1427H117.618H112.703H112.534V25.3076V46.5609V46.7259H112.703Z" fill="#272220"/>
<path d="M130.532 42.7391C129.023 42.7391 128.259 41.8786 128.259 40.1828V29.1725H132.92V25.1427H128.259V20.4819H123.014V25.1427H120.275V29.1725H123.014V40.6453C123.014 44.8149 125.351 47.0987 129.6 47.0987C130.752 47.1226 131.9 46.9405 132.988 46.561L133.095 46.5217V42.2516L132.866 42.345C132.123 42.6344 131.329 42.7684 130.532 42.7391Z" fill="#272220"/>
<path d="M144.511 53.8964L156.091 25.3722L156.185 25.1427H155.937H151.144H151.029L150.989 25.2503L145.938 38.5515L140.449 25.2467L140.406 25.1427H140.295H134.971H134.716L134.82 25.3757L143.202 44.4098L139.37 53.7709L139.276 54.0003H139.52H144.357H144.468L144.511 53.8964Z" fill="#272220"/>
</g>
<defs>
<clipPath id="clip0_1581_2103">
<rect width="153.369" height="39.0009" fill="white" transform="translate(3.31531 15.4995)"/>
</clipPath>
</defs>
</svg>
