<svg width="160" height="70" viewBox="0 0 160 70" fill="none" xmlns="http://www.w3.org/2000/svg">
<path d="M45.9292 31.0522C44.2308 25.9181 39.3598 24.2651 36.131 24.3818C32.1744 24.4985 30.0095 27.8045 29.8975 27.8045V25.9181C29.8975 25.5097 29.8975 24.9652 29.2257 24.9652L24.9705 25.0235C24.4106 25.0235 24 25.1402 24 25.8403V52.8721C24 53.5138 24.2799 53.9417 25.1385 53.9417H29.3936C29.9535 53.9417 30.5321 53.4749 30.4761 52.8721V44.4319C30.4761 44.2569 30.4761 44.1986 30.7001 44.4319C31.092 45.0154 32.6224 47.0962 36.8776 47.1546C45.4813 47.3296 47.9635 37.0614 45.9292 31.0522ZM40.2183 36.1279C40.1063 38.3644 38.8558 41.1453 35.2912 41.262C31.4466 41.3787 30.0842 38.8506 29.9722 35.8362C29.8042 32.5885 31.8385 30.3521 35.0672 30.2938C38.7999 30.2938 40.2742 33.2497 40.1623 36.1279H40.2183ZM82.7888 24.4401C81.0905 24.4401 79.3922 24.3818 77.9178 25.4514C76.9473 26.0931 76.2194 26.9877 75.6595 28.0573C75.5476 28.2907 75.4356 28.6407 75.4356 28.2907V25.9376C75.3796 25.3541 74.9877 24.9263 74.2411 24.9263H69.874C69.2021 24.9263 68.9595 25.5681 68.9595 25.9959V45.346C68.9595 46.5322 69.5194 46.5906 70.1539 46.5906H74.2411C74.913 46.5906 75.3796 46.4156 75.3796 45.4043V38.2088C75.3796 36.6141 75.3236 34.9028 75.8275 33.3664C76.1634 32.1801 76.966 31.305 77.9738 30.7605C79.0002 30.2938 80.064 30.1771 81.1465 30.1771C82.061 30.2938 83.7033 30.7605 83.7033 29.2242V25.4319C83.7033 24.9652 83.3114 24.4207 82.7888 24.479V24.4401ZM107.536 35.5834C107.48 29.1464 103.692 26.0154 101.303 25.1402C98.2419 23.9539 95.2372 24.0706 92.755 25.8403C92.0271 26.3849 91.3739 27.0461 90.8327 27.7851H90.7207V25.782C90.7207 25.3152 90.2728 24.8874 89.8062 24.8874H85.8496C85.2337 24.8874 84.8791 25.4708 84.8791 26.0737V52.9304C84.8791 53.2221 84.8791 53.9417 85.8496 54H90.2168C90.6647 54 91.2992 53.8833 91.2992 52.8137V44.3736C91.3552 44.1402 91.5232 44.3736 91.6352 44.607C92.5497 45.9683 94.8079 47.0184 97.1221 47.1351C100.351 47.3101 102.777 46.1238 104.718 43.8874C106.547 41.5343 107.517 38.5977 107.499 35.564H107.536V35.5834ZM101.023 36.0113C101.079 38.9672 98.9325 41.3204 96.0957 41.3204C91.8405 41.2037 90.8327 37.956 90.7767 36.1279C90.7767 31.9468 93.3335 30.4688 95.4798 30.2938C99.5483 30.0409 100.967 33.0553 101.023 36.0113ZM135.979 35.9529C136.427 27.6878 129.745 21.1924 120.227 25.9181C114.274 28.8158 112.986 37.7226 116.942 42.7984C121.757 49.0604 130.809 48.0491 134.448 43.6151C134.952 43.0317 134.616 42.5455 134.112 42.1372L131.22 40.0174C130.828 39.7257 130.249 39.8424 129.969 40.1924C129.409 40.8342 127.991 42.1955 125.901 42.1372C123.232 42.1372 121.589 40.3675 121.086 37.956L135.008 37.8393C135.867 37.781 135.792 37.0809 135.923 35.8946L135.979 35.9529ZM121.142 33.2886C121.31 30.6827 123.4 29.1658 125.733 29.1658C128.103 29.2242 129.465 30.9355 129.689 33.2886H121.198H121.142ZM65.2455 24.9652H61.5129C60.5424 24.9652 60.1505 25.7236 60.1505 26.5599C60.1505 26.5599 60.3184 35.6418 60.0385 37.4698C59.8145 39.3562 59.068 41.0676 56.4179 41.2426C53.4131 41.3593 53.1331 38.2866 53.0212 37.7032V26.3071C53.0212 25.607 52.5173 24.8874 51.7147 24.8874H47.1236C46.7317 24.8874 46.5637 25.2375 46.5077 25.4708L46.5637 26.4821C46.6757 26.8321 47.3476 27.7851 47.7022 28.4268C49.3632 31.9079 49.7551 35.8946 48.7846 39.6479C48.2807 41.5343 47.9261 42.0594 47.6462 42.7789C47.2543 43.7318 48.8966 45.7349 50.427 46.3183C52.5173 47.1351 57.5563 48.088 60.3371 43.5374V45.132C60.3371 45.7155 60.785 46.4933 61.7555 46.4933H65.2642C65.936 46.4933 66.5146 45.9099 66.5146 45.0737V26.3654C66.4773 25.6264 65.9174 24.9652 65.2455 24.9652ZM112.463 16H108.208C107.238 16 106.958 16 106.958 16.9529V23.6817C106.958 24.6929 106.79 26.0931 107.294 26.9294C108.264 28.5241 109.794 31.1689 109.962 33.9498C110.074 36.6141 109.794 39.259 108.712 41.7482C108.152 42.9345 107.294 43.868 107.014 45.1126C106.902 45.5793 106.846 46.0461 106.846 46.5322C106.846 46.8823 107.014 47.5435 107.76 47.5435H112.127C112.631 47.5435 113.266 47.4268 113.266 46.5322V17.0113C113.266 16.4084 112.986 16 112.463 16Z" fill="white"/>
</svg>
