<svg width="160" height="70" viewBox="0 0 160 70" fill="none" xmlns="http://www.w3.org/2000/svg">
<path d="M19.8159 34.4969H24.2085V34.7914H24.0613C23.4478 34.7914 23.0552 35.822 23.0552 36.3864V44.6073C21.6073 45.1472 19.1288 45.4662 17.2883 45.4662C9.90178 45.4662 6.39258 40.0674 6.39258 35.0368C6.39258 29.957 9.8527 24.6318 17.4355 24.6318C18.8834 24.6318 20.1104 24.9263 21.0429 25.1717C21.5828 25.2944 21.9754 25.4171 22.2453 25.4171H22.5398V28.6809H22.2453C21.73 26.1288 19.1533 25.7361 17.3374 25.7361C11.1779 25.7361 8.47847 30.4723 8.47847 34.7668C8.47847 39.503 12.2331 44.4355 17.8527 44.4355C18.638 44.4355 19.865 44.3128 21.0183 43.6748V36.4601C21.0183 35.8711 20.6502 34.865 20.0122 34.865H19.8159V34.4969ZM46.319 44.8772V45.1717H41.9999V44.8772H42.1472C42.7607 44.8772 43.1288 43.7975 43.1288 43.184V26.8404C43.1288 26.2515 42.7607 25.2453 42.1472 25.2453H41.9999V24.9509H47.3251C51.3987 24.9509 53.73 26.5705 53.73 29.6871C53.73 32.7791 51.5459 34.3251 48.9447 34.8159L51.1533 38.1779C52.2331 39.7975 53.3374 41.3435 54.4171 43.0122C55.0061 43.8466 55.7914 44.8772 56.7239 44.8772V45.1717H55.3987C53.7791 45.1717 52.7975 44.2392 52.0858 43.184C50.2453 40.4846 48.4294 37.6625 46.6134 34.9877C46.1717 34.9386 45.6318 34.8895 45.1656 34.7914V43.184C45.1656 43.7975 45.5337 44.8772 46.1472 44.8772H46.319ZM45.1901 25.9815V33.7852H45.3374C45.6809 33.8343 46.368 33.8343 47.4478 33.8343C49.141 33.8343 51.6196 32.8527 51.6196 29.7852C51.6196 26.6932 49.1656 25.9815 45.6318 25.9815H45.1901ZM84.9938 44.8772H85.141C85.6318 44.8772 85.8772 44.6809 85.8772 44.1901C85.8772 44.0429 85.8282 43.8466 85.7791 43.6503L83.0061 36.1901H77.6564L74.9815 43.503C74.9324 43.6503 74.8834 43.7975 74.8834 43.9447C74.8834 44.4846 75.2269 44.8036 75.5705 44.8036H75.7177V45.0981H72.3067V44.8036H72.4539C72.9938 44.8036 73.5337 44.0674 73.8772 43.2085L80.8956 24.5337L87.7668 43.0613C88.0613 43.8957 88.5521 44.8282 89.3619 44.8282H89.5091V45.1226H84.9693L84.9938 44.8772ZM77.9754 35.184H82.7116L80.3558 28.7791L77.9754 35.184ZM113.583 44.8772V45.1717H109.19V44.8772H109.337C109.975 44.8772 110.368 43.8711 110.368 43.2576V26.865C110.368 26.276 110.024 25.2699 109.337 25.2699H109.19V24.9754H121.681V27.822H121.386C121.386 26.865 120.773 26.0552 119.423 26.0552H112.405V33.8098H118.221C119.178 33.8098 119.89 33.1226 119.89 32.3619H120.184V36.1901H119.89C119.89 35.4539 119.202 34.8404 118.221 34.8404H112.405V43.2822C112.405 43.8957 112.773 44.9018 113.411 44.9018L113.583 44.8772ZM145.509 44.8772V45.1717H141.117V44.8772H141.264C141.902 44.8772 142.294 43.8711 142.294 43.2576V26.865C142.294 26.276 141.951 25.2699 141.264 25.2699H141.117V24.9754H153.607V27.822H153.313C153.313 26.865 152.699 26.0552 151.35 26.0552H144.331V33.8098H150.147C151.104 33.8098 151.816 33.1226 151.816 32.3619H152.11V36.1901H151.816C151.816 35.4539 151.129 34.8404 150.147 34.8404H144.331V43.2822C144.331 43.8957 144.699 44.9018 145.362 44.9018L145.509 44.8772Z" fill="#F5F5F5"/>
</svg>
