<svg width="133" height="35" viewBox="0 0 133 35" fill="none" xmlns="http://www.w3.org/2000/svg">
<path fill-rule="evenodd" clip-rule="evenodd" d="M66.2358 0.0137752C63.8131 0.156301 61.5833 1.46785 60.2119 3.55698C59.9598 3.94101 59.6402 4.55559 59.477 4.97012C58.8519 6.55823 58.7319 8.2796 59.1307 9.93632C59.5514 11.6834 60.5264 13.2132 61.9413 14.3459C62.1498 14.5129 62.5855 14.8124 62.8206 14.9505C63.8147 15.5341 64.9176 15.8819 66.0977 15.984C66.3421 16.0052 67.0354 16.0054 67.2959 15.9843C68.4662 15.8899 69.5765 15.5406 70.5776 14.9518C70.7775 14.8342 71.1784 14.5692 71.2826 14.4858L71.3191 14.4565L70.4657 12.9393C69.9963 12.1049 69.6105 11.4199 69.6083 11.4172C69.6062 11.4146 69.531 11.4727 69.4412 11.5465C68.8409 12.0401 68.1005 12.3684 67.3148 12.4894C67.0542 12.5294 66.504 12.5374 66.2315 12.505C65.8207 12.4562 65.4624 12.3669 65.1137 12.2262C63.0735 11.4036 61.9267 9.21384 62.392 7.02927C62.5308 6.37743 62.8476 5.70102 63.2655 5.16392C63.4028 4.98748 63.7608 4.62026 63.9329 4.47931C64.2624 4.20942 64.7132 3.94125 65.098 3.78616C65.5539 3.60238 65.9767 3.51343 66.5779 3.47482L66.7275 3.46522L67.495 1.81664C67.9171 0.909936 68.2597 0.165216 68.2563 0.161727C68.2445 0.149647 67.813 0.0784891 67.6013 0.0537308C67.1373 -0.000533938 66.6976 -0.0133895 66.2358 0.0137752ZM70.3186 0.60321C69.7599 0.706717 69.212 1.10291 68.9535 1.59033L68.9002 1.69091L69.2587 2.05869C69.4978 2.30402 69.621 2.41974 69.6287 2.40626C69.635 2.39514 69.6756 2.32313 69.7189 2.24622C69.8746 1.96955 70.1149 1.75743 70.3738 1.66796C70.529 1.61434 70.7943 1.59454 70.9405 1.62565C71.223 1.68581 71.3945 1.87033 71.3953 2.11495C71.3959 2.31859 71.2991 2.48292 71.0871 2.6381C71.0315 2.67877 70.8178 2.80067 70.6122 2.90898C70.067 3.19619 69.8086 3.38 69.5354 3.67481C69.1253 4.11735 68.939 4.64642 68.9131 5.44251L68.9032 5.74533H70.6926H72.4819V5.22852V4.71171H71.3235H70.165L70.1758 4.65922C70.2131 4.47717 70.383 4.25628 70.5926 4.117C70.649 4.07962 70.8615 3.9609 71.065 3.85317C71.4744 3.63643 71.6742 3.51747 71.8311 3.39684C72.1615 3.14306 72.3631 2.85736 72.4532 2.51528C72.4842 2.3977 72.4894 2.33863 72.4895 2.10346C72.4898 1.78324 72.4709 1.68584 72.3638 1.45744C72.1604 1.02406 71.6762 0.698722 71.089 0.601046C70.9081 0.570926 70.4865 0.572105 70.3186 0.60321ZM67.3022 8.56528C66.7696 9.512 66.3315 10.2932 66.3286 10.3012C66.3255 10.3099 67.1125 10.3161 68.2651 10.3165L70.207 10.3172L71.1733 12.0371C71.7048 12.9831 72.142 13.7546 72.1449 13.7517C72.1478 13.7487 72.5888 12.967 73.125 12.0143L74.1 10.2823L73.5479 9.30184C73.2443 8.76256 72.8098 7.99062 72.5825 7.58646L72.169 6.85162L70.2197 6.84781L68.2704 6.84401L67.3022 8.56528Z" fill="white"/>
<path d="M0.888 33V24.42H4.332C6.216 24.42 7.2 25.308 7.2 26.892C7.2 27.96 6.54 28.776 5.64 28.992V29.016C7.572 29.388 6.864 32.784 7.32 32.928V33H6.156C5.784 32.64 6.6 29.532 4.428 29.532H1.968V33H0.888ZM1.968 28.572H4.08C5.388 28.572 6.12 27.984 6.12 26.916C6.12 25.932 5.568 25.38 4.116 25.38H1.968V28.572ZM10.2658 33.168C9.02981 33.168 8.24981 32.46 8.24981 31.428C8.24981 30.024 9.28181 29.64 10.8658 29.352C11.9098 29.16 12.3898 29.04 12.3898 28.44C12.3898 27.96 12.1258 27.54 11.1178 27.54C9.95381 27.54 9.61781 27.888 9.55781 28.776H8.54981C8.60981 27.6 9.35381 26.7 11.1538 26.7C12.2938 26.7 13.3258 27.18 13.3258 28.68V31.62C13.3258 32.1 13.3978 32.34 13.6378 32.34C13.6738 32.34 13.7098 32.34 13.7818 32.328V33C13.6258 33.036 13.4818 33.06 13.3138 33.06C12.7858 33.06 12.4618 32.856 12.4018 32.1H12.3778C11.9818 32.76 11.2858 33.168 10.2658 33.168ZM9.25781 31.38C9.25781 31.98 9.56981 32.328 10.3618 32.328C11.5138 32.328 12.3898 31.812 12.3898 30.636V29.664C12.2098 29.856 11.6098 30.012 10.9498 30.144C9.76181 30.384 9.25781 30.672 9.25781 31.38ZM16.7422 33.06C15.8422 33.06 15.2182 32.748 15.2182 31.356V27.72H14.3182V26.88H15.2182V24.84H16.1782V26.88H17.3782V27.72H16.1782V31.404C16.1782 32.052 16.3342 32.22 16.8742 32.22C17.0782 32.22 17.1742 32.208 17.3782 32.184V33C17.1022 33.048 16.9582 33.06 16.7422 33.06ZM21.0283 33.18C19.0963 33.18 18.0523 31.788 18.0523 29.928C18.0523 27.972 19.2163 26.7 21.0283 26.7C22.8163 26.7 23.8603 27.924 23.8603 29.712C23.8603 29.892 23.8603 30.096 23.8483 30.192H19.0603C19.0843 31.272 19.6843 32.352 21.0403 32.352C22.2403 32.352 22.6963 31.548 22.8043 31.116H23.7763C23.4643 32.256 22.6003 33.18 21.0283 33.18ZM19.0603 29.352H22.8403C22.8403 28.344 22.1203 27.528 20.9803 27.528C19.9243 27.528 19.1203 28.284 19.0603 29.352ZM27.4714 33.168C25.9354 33.168 24.7114 31.956 24.7114 29.94C24.7114 27.924 25.9354 26.712 27.4714 26.712C28.4554 26.712 29.0314 27.144 29.3914 27.672H29.4154V24.42H30.3754V33H29.4154V32.244H29.3914C29.0314 32.712 28.4554 33.168 27.4714 33.168ZM25.7194 29.94C25.7194 31.14 26.3074 32.328 27.5674 32.328C28.7074 32.328 29.4154 31.38 29.4154 29.94C29.4154 28.5 28.7074 27.552 27.5674 27.552C26.3074 27.552 25.7194 28.74 25.7194 29.94ZM38.1683 33V31.056H34.1723V30.096L38.1683 24.708H39.2483V30.096H40.3883V31.056H39.2483V33H38.1683ZM35.2763 30.096H38.1683V26.208L35.2763 30.096ZM41.0603 33V31.848H42.2123V33H41.0603ZM45.9679 33.168C44.4319 33.168 43.4719 32.112 43.3519 30.9H44.4799C44.5879 31.704 45.0439 32.208 45.9679 32.208C47.6599 32.208 48.0439 30.576 48.0439 29.04V28.932L48.0199 28.92C47.5879 29.712 46.7719 30.12 45.8239 30.12C44.2399 30.12 43.1359 29.028 43.1359 27.384C43.1359 25.848 44.2159 24.54 46.0159 24.54C48.2839 24.54 49.1239 26.22 49.1239 28.86C49.1239 31.5 48.0079 33.168 45.9679 33.168ZM44.2639 27.312C44.2639 28.5 44.9359 29.16 45.9199 29.16C47.1199 29.16 47.8759 28.404 47.8759 27.288C47.8759 26.22 47.2159 25.5 46.0159 25.5C44.8759 25.5 44.2639 26.208 44.2639 27.312ZM49.6576 33L52.9816 24.42H53.9416L50.6176 33H49.6576ZM57.3547 33.168C55.4587 33.168 54.4027 31.944 54.3547 30.612H55.4827C55.5787 31.416 56.0107 32.208 57.3067 32.208C58.4467 32.208 59.2027 31.5 59.2027 30.168C59.2027 28.92 58.4947 28.392 57.4267 28.392C56.6827 28.392 56.0347 28.632 55.6147 29.172H54.4627L55.3267 24.708H59.8867V25.668H56.2027L55.7107 28.176V28.2C56.1307 27.72 56.7547 27.432 57.6787 27.432C59.2387 27.432 60.3307 28.632 60.3307 30.168C60.3307 31.956 59.0227 33.168 57.3547 33.168ZM66.9328 33.18C65.0608 33.18 63.9328 31.848 63.9328 29.94C63.9328 28.032 65.0608 26.7 66.9328 26.7C68.7928 26.7 69.9208 28.032 69.9208 29.94C69.9208 31.848 68.7928 33.18 66.9328 33.18ZM64.9408 29.94C64.9408 31.248 65.5528 32.34 66.9328 32.34C68.3008 32.34 68.9128 31.248 68.9128 29.94C68.9128 28.632 68.3008 27.54 66.9328 27.54C65.5528 27.54 64.9408 28.632 64.9408 29.94ZM75.1839 28.968C75.1839 28.176 74.8119 27.552 73.8519 27.552C72.7719 27.552 72.0519 28.236 72.0519 29.184V33H71.0919V26.88H72.0519V27.612H72.0759C72.3999 27.18 73.0479 26.712 74.0919 26.712C75.2079 26.712 76.1439 27.324 76.1439 28.728V33H75.1839V28.968ZM83.9328 33.168C81.4368 33.168 80.0688 31.296 80.0688 28.704C80.0688 26.124 81.6768 24.252 84.0528 24.252C86.2248 24.252 87.3648 25.38 87.6648 27.012H86.5368C86.2848 25.788 85.3488 25.212 84.0528 25.212C82.0128 25.212 81.1968 27.096 81.1968 28.704C81.1968 30.324 81.7728 32.208 83.9328 32.208C85.4688 32.208 86.7288 31.104 86.7288 29.496H83.9328V28.536H87.8088V33H87.0888L86.7288 31.788H86.7048C86.0568 32.688 85.2528 33.168 83.9328 33.168ZM88.8696 33C88.8696 31.5 89.8176 30.324 91.3416 29.436C92.8896 28.536 93.6096 28.248 93.6096 27.036C93.6096 26.34 93.3456 25.5 92.0736 25.5C90.6216 25.5 90.2376 26.472 90.2376 27.612H89.1096C89.1096 25.896 90.0456 24.54 92.0976 24.54C93.5136 24.54 94.7376 25.44 94.7376 27.024C94.7376 28.632 93.4416 29.4 92.2296 30.096C91.2936 30.636 90.4056 31.152 90.1776 32.016V32.04H94.6176V33H88.8696ZM102.459 33.168C100.107 33.168 98.4871 31.296 98.4871 28.704C98.4871 26.124 100.107 24.252 102.459 24.252C104.559 24.252 105.903 25.62 106.107 27.252H104.979C104.823 26.436 104.247 25.212 102.459 25.212C100.419 25.212 99.6151 26.976 99.6151 28.704C99.6151 30.444 100.419 32.208 102.459 32.208C104.259 32.208 104.907 30.984 104.979 29.904H106.107C105.915 31.8 104.571 33.168 102.459 33.168ZM108.245 29.736V33H107.285V26.88H108.245V28.092H108.269C108.593 27.288 109.085 26.712 109.961 26.712C110.189 26.712 110.357 26.724 110.525 26.748V27.708C110.381 27.684 110.273 27.672 110.129 27.672C109.001 27.672 108.245 28.56 108.245 29.736ZM113.83 33.18C111.958 33.18 110.83 31.848 110.83 29.94C110.83 28.032 111.958 26.7 113.83 26.7C115.69 26.7 116.818 28.032 116.818 29.94C116.818 31.848 115.69 33.18 113.83 33.18ZM111.838 29.94C111.838 31.248 112.45 32.34 113.83 32.34C115.198 32.34 115.81 31.248 115.81 29.94C115.81 28.632 115.198 27.54 113.83 27.54C112.45 27.54 111.838 28.632 111.838 29.94ZM119.217 33L117.273 26.88H118.353L119.757 31.92H119.781L121.125 26.88H122.169L123.513 31.92H123.537L124.953 26.88H125.997L124.041 33H122.997L121.641 28.032H121.617L120.261 33H119.217ZM129.217 33.168C127.681 33.168 126.457 31.956 126.457 29.94C126.457 27.924 127.681 26.712 129.217 26.712C130.201 26.712 130.777 27.144 131.137 27.672H131.161V24.42H132.121V33H131.161V32.244H131.137C130.777 32.712 130.201 33.168 129.217 33.168ZM127.465 29.94C127.465 31.14 128.053 32.328 129.313 32.328C130.453 32.328 131.161 31.38 131.161 29.94C131.161 28.5 130.453 27.552 129.313 27.552C128.053 27.552 127.465 28.74 127.465 29.94Z" fill="#D3D3D3"/>
</svg>
