<svg width="174" height="36" viewBox="0 0 174 36" fill="none" xmlns="http://www.w3.org/2000/svg">
<path d="M117.652 5.54419L117.477 7.67242H116.611C115.22 7.67242 114.494 8.793 114.494 9.85277V14.6478H112.035V5.54419H114.38L114.441 6.69083C114.931 5.91772 115.797 5.54419 116.847 5.54419H117.661H117.652Z" fill="white"/>
<path d="M100.491 14.6565H98.0056V9.86143C98.0056 8.85378 97.9181 7.59422 96.5006 7.59422C95.0831 7.59422 94.5931 8.56712 94.5931 9.72245V14.6652H92.1081V5.54417H94.3918L94.4531 6.69081C94.9431 5.9177 95.8706 5.30963 97.2006 5.30963C99.6943 5.30963 100.473 7.09039 100.473 8.93196V14.6478H100.499L100.491 14.6565Z" fill="white"/>
<path d="M91.0245 12.528L90.8495 14.5954C90.237 14.7691 89.7207 14.7952 89.082 14.7952C86.737 14.7952 86.072 13.7354 86.072 11.6072V2.98132H88.557V5.54388H91.0157L90.8407 7.67211H88.557V11.4334C88.557 12.2934 88.7932 12.7538 89.6857 12.7538C90.062 12.7538 90.4995 12.693 91.0157 12.5193" fill="white"/>
<path d="M85.2577 5.54419L85.0564 7.67242H84.3914C83.0002 7.67242 82.3089 8.793 82.3089 9.85277V14.6478H79.8239V5.54419H82.1689L82.2302 6.69083C82.7202 5.91772 83.5864 5.54419 84.6627 5.54419H85.2752H85.2577Z" fill="white"/>
<path d="M68.6771 13.6487C66.9971 14.5434 65.3171 15.0559 63.0858 14.9951C58.9733 14.8561 56.0246 12.3283 56.0246 8.04581C56.0246 3.7633 59.0083 1.06175 63.0858 1.00094C65.1683 0.974883 67.0233 1.4874 68.4671 2.75565L66.7346 4.51035C65.8071 3.7633 64.5033 3.32896 62.9458 3.38977C60.3733 3.5027 58.8071 5.37033 58.7808 7.89814C58.7546 10.6605 60.4608 12.5542 63.1208 12.6411C64.3633 12.6671 65.2646 12.4934 66.0433 12.1546V9.34013H63.2608L63.4358 7.0121H68.6421V13.6487H68.6683H68.6771Z" fill="white"/>
<path d="M110.878 10.9732H104.07C104.272 12.1198 105.199 12.8408 106.328 12.8669C107.457 12.8929 108.069 12.5542 108.874 11.7463L110.493 12.9798C109.338 14.387 107.973 14.9082 106.38 14.9082C103.633 14.9082 101.542 12.9798 101.542 10.1393C101.542 7.29874 103.598 5.3703 106.258 5.3703C109.207 5.3703 110.799 7.15106 110.799 10.2869V10.9732H110.86H110.878ZM108.419 9.0795C108.332 7.93286 107.465 7.21187 106.275 7.23793C105.059 7.29874 104.28 8.07185 104.105 9.0795H108.419Z" fill="white"/>
<path d="M78.2833 8.70611V14.6565H76.1133L76.0521 13.7617C75.3871 14.5957 74.2846 14.8823 73.1908 14.8823C71.5108 14.8823 69.9183 14.0484 69.8921 12.12C69.8308 9.1057 73.3046 8.87116 75.5096 8.87116H75.9471V8.75823C75.9471 7.75058 75.2821 7.20332 74.0396 7.20332C73.1383 7.20332 72.2458 7.55079 71.6071 8.17623L70.1896 6.74293C71.4933 5.70922 72.8233 5.30963 74.2758 5.30963C77.0583 5.33569 78.3008 6.63 78.3008 8.69742M75.9121 10.6867H75.5621C74.4071 10.6867 72.3158 10.7475 72.3508 11.9549C72.3508 13.6836 75.9121 13.1363 75.9121 11.0602V10.6867Z" fill="white"/>
<path d="M115.718 13.5878C115.718 13.0145 116.155 12.5802 116.733 12.5802C117.31 12.5802 117.748 13.0145 117.748 13.5878C117.748 14.1959 117.31 14.6215 116.733 14.6215C116.155 14.6215 115.718 14.1872 115.718 13.5878ZM116.733 14.8213C117.398 14.8213 117.975 14.3001 117.975 13.5878C117.975 12.8755 117.398 12.3804 116.733 12.3804C116.068 12.3804 115.49 12.9016 115.49 13.5878C115.49 14.2741 116.042 14.8213 116.733 14.8213ZM116.47 13.7007H116.733L117.109 14.3001H117.337L116.934 13.666C117.135 13.6399 117.31 13.5183 117.31 13.2664C117.31 12.9797 117.135 12.8668 116.82 12.8668H116.243V14.2741H116.444V13.7007H116.47ZM116.47 13.5009V13.0666H116.759C116.899 13.0666 117.074 13.0927 117.074 13.2664C117.074 13.5009 116.899 13.5009 116.724 13.5009H116.462H116.47Z" fill="white"/>
<path d="M0.901596 33V24.42H4.3456C6.2296 24.42 7.2136 25.308 7.2136 26.892C7.2136 27.96 6.5536 28.776 5.6536 28.992V29.016C7.5856 29.388 6.8776 32.784 7.3336 32.928V33H6.1696C5.7976 32.64 6.6136 29.532 4.4416 29.532H1.9816V33H0.901596ZM1.9816 28.572H4.0936C5.4016 28.572 6.1336 27.984 6.1336 26.916C6.1336 25.932 5.5816 25.38 4.1296 25.38H1.9816V28.572ZM10.2794 33.168C9.04341 33.168 8.26341 32.46 8.26341 31.428C8.26341 30.024 9.29541 29.64 10.8794 29.352C11.9234 29.16 12.4034 29.04 12.4034 28.44C12.4034 27.96 12.1394 27.54 11.1314 27.54C9.96741 27.54 9.63141 27.888 9.57141 28.776H8.56341C8.62341 27.6 9.36741 26.7 11.1674 26.7C12.3074 26.7 13.3394 27.18 13.3394 28.68V31.62C13.3394 32.1 13.4114 32.34 13.6514 32.34C13.6874 32.34 13.7234 32.34 13.7954 32.328V33C13.6394 33.036 13.4954 33.06 13.3274 33.06C12.7994 33.06 12.4754 32.856 12.4154 32.1H12.3914C11.9954 32.76 11.2994 33.168 10.2794 33.168ZM9.27141 31.38C9.27141 31.98 9.58341 32.328 10.3754 32.328C11.5274 32.328 12.4034 31.812 12.4034 30.636V29.664C12.2234 29.856 11.6234 30.012 10.9634 30.144C9.77541 30.384 9.27141 30.672 9.27141 31.38ZM16.7558 33.06C15.8558 33.06 15.2318 32.748 15.2318 31.356V27.72H14.3318V26.88H15.2318V24.84H16.1918V26.88H17.3918V27.72H16.1918V31.404C16.1918 32.052 16.3478 32.22 16.8878 32.22C17.0918 32.22 17.1878 32.208 17.3918 32.184V33C17.1158 33.048 16.9718 33.06 16.7558 33.06ZM21.0419 33.18C19.1099 33.18 18.0659 31.788 18.0659 29.928C18.0659 27.972 19.2299 26.7 21.0419 26.7C22.8299 26.7 23.8739 27.924 23.8739 29.712C23.8739 29.892 23.8739 30.096 23.8619 30.192H19.0739C19.0979 31.272 19.6979 32.352 21.0539 32.352C22.2539 32.352 22.7099 31.548 22.8179 31.116H23.7899C23.4779 32.256 22.6139 33.18 21.0419 33.18ZM19.0739 29.352H22.8539C22.8539 28.344 22.1339 27.528 20.9939 27.528C19.9379 27.528 19.1339 28.284 19.0739 29.352ZM27.485 33.168C25.949 33.168 24.725 31.956 24.725 29.94C24.725 27.924 25.949 26.712 27.485 26.712C28.469 26.712 29.045 27.144 29.405 27.672H29.429V24.42H30.389V33H29.429V32.244H29.405C29.045 32.712 28.469 33.168 27.485 33.168ZM25.733 29.94C25.733 31.14 26.321 32.328 27.581 32.328C28.721 32.328 29.429 31.38 29.429 29.94C29.429 28.5 28.721 27.552 27.581 27.552C26.321 27.552 25.733 28.74 25.733 29.94ZM38.1819 33V31.056H34.1859V30.096L38.1819 24.708H39.2619V30.096H40.4019V31.056H39.2619V33H38.1819ZM35.2899 30.096H38.1819V26.208L35.2899 30.096ZM41.0738 33V31.848H42.2258V33H41.0738ZM45.9815 33.168C44.4455 33.168 43.4855 32.112 43.3655 30.9H44.4935C44.6015 31.704 45.0575 32.208 45.9815 32.208C47.6735 32.208 48.0575 30.576 48.0575 29.04V28.932L48.0335 28.92C47.6015 29.712 46.7855 30.12 45.8375 30.12C44.2535 30.12 43.1495 29.028 43.1495 27.384C43.1495 25.848 44.2295 24.54 46.0295 24.54C48.2975 24.54 49.1375 26.22 49.1375 28.86C49.1375 31.5 48.0215 33.168 45.9815 33.168ZM44.2775 27.312C44.2775 28.5 44.9495 29.16 45.9335 29.16C47.1335 29.16 47.8895 28.404 47.8895 27.288C47.8895 26.22 47.2295 25.5 46.0295 25.5C44.8895 25.5 44.2775 26.208 44.2775 27.312ZM49.6712 33L52.9952 24.42H53.9552L50.6312 33H49.6712ZM57.3683 33.168C55.4723 33.168 54.4163 31.944 54.3683 30.612H55.4963C55.5923 31.416 56.0243 32.208 57.3203 32.208C58.4603 32.208 59.2163 31.5 59.2163 30.168C59.2163 28.92 58.5083 28.392 57.4403 28.392C56.6963 28.392 56.0483 28.632 55.6283 29.172H54.4763L55.3403 24.708H59.9003V25.668H56.2163L55.7243 28.176V28.2C56.1443 27.72 56.7683 27.432 57.6923 27.432C59.2523 27.432 60.3443 28.632 60.3443 30.168C60.3443 31.956 59.0363 33.168 57.3683 33.168ZM67.9184 33.168C65.4224 33.168 64.0544 31.296 64.0544 28.704C64.0544 26.124 65.6624 24.252 68.0384 24.252C70.2104 24.252 71.3504 25.38 71.6504 27.012H70.5224C70.2704 25.788 69.3344 25.212 68.0384 25.212C65.9984 25.212 65.1824 27.096 65.1824 28.704C65.1824 30.324 65.7584 32.208 67.9184 32.208C69.4544 32.208 70.7144 31.104 70.7144 29.496H67.9184V28.536H71.7944V33H71.0744L70.7144 31.788H70.6904C70.0424 32.688 69.2384 33.168 67.9184 33.168ZM74.8952 33.168C73.6592 33.168 72.8792 32.46 72.8792 31.428C72.8792 30.024 73.9112 29.64 75.4952 29.352C76.5392 29.16 77.0192 29.04 77.0192 28.44C77.0192 27.96 76.7552 27.54 75.7472 27.54C74.5832 27.54 74.2472 27.888 74.1872 28.776H73.1792C73.2392 27.6 73.9832 26.7 75.7832 26.7C76.9232 26.7 77.9552 27.18 77.9552 28.68V31.62C77.9552 32.1 78.0272 32.34 78.2672 32.34C78.3032 32.34 78.3392 32.34 78.4112 32.328V33C78.2552 33.036 78.1112 33.06 77.9432 33.06C77.4152 33.06 77.0912 32.856 77.0312 32.1H77.0072C76.6112 32.76 75.9152 33.168 74.8952 33.168ZM73.8872 31.38C73.8872 31.98 74.1992 32.328 74.9912 32.328C76.1432 32.328 77.0192 31.812 77.0192 30.636V29.664C76.8392 29.856 76.2392 30.012 75.5792 30.144C74.3912 30.384 73.8872 30.672 73.8872 31.38ZM80.541 29.736V33H79.581V26.88H80.541V28.092H80.565C80.889 27.288 81.381 26.712 82.257 26.712C82.485 26.712 82.653 26.724 82.821 26.748V27.708C82.677 27.684 82.569 27.672 82.425 27.672C81.297 27.672 80.541 28.56 80.541 29.736ZM85.64 33.06C84.74 33.06 84.116 32.748 84.116 31.356V27.72H83.216V26.88H84.116V24.84H85.076V26.88H86.276V27.72H85.076V31.404C85.076 32.052 85.232 32.22 85.772 32.22C85.976 32.22 86.072 32.208 86.276 32.184V33C86 33.048 85.856 33.06 85.64 33.06ZM91.495 28.968C91.495 28.176 91.123 27.552 90.163 27.552C89.083 27.552 88.363 28.236 88.363 29.184V33H87.403V26.88H88.363V27.612H88.387C88.711 27.18 89.359 26.712 90.403 26.712C91.519 26.712 92.455 27.324 92.455 28.728V33H91.495V28.968ZM96.5735 33.18C94.6415 33.18 93.5975 31.788 93.5975 29.928C93.5975 27.972 94.7615 26.7 96.5735 26.7C98.3615 26.7 99.4055 27.924 99.4055 29.712C99.4055 29.892 99.4055 30.096 99.3935 30.192H94.6055C94.6295 31.272 95.2295 32.352 96.5855 32.352C97.7855 32.352 98.2415 31.548 98.3495 31.116H99.3215C99.0095 32.256 98.1455 33.18 96.5735 33.18ZM94.6055 29.352H98.3855C98.3855 28.344 97.6655 27.528 96.5255 27.528C95.4695 27.528 94.6655 28.284 94.6055 29.352ZM101.541 29.736V33H100.581V26.88H101.541V28.092H101.565C101.889 27.288 102.381 26.712 103.257 26.712C103.485 26.712 103.653 26.724 103.821 26.748V27.708C103.677 27.684 103.569 27.672 103.425 27.672C102.297 27.672 101.541 28.56 101.541 29.736ZM107.352 33V24.42H110.76C112.332 24.42 113.544 25.116 113.544 26.916C113.544 28.716 112.332 29.412 110.76 29.412H108.432V33H107.352ZM108.432 28.452H110.832C111.9 28.452 112.416 27.96 112.416 26.916C112.416 25.872 111.9 25.38 110.832 25.38H108.432V28.452ZM116.975 33.18C115.043 33.18 113.999 31.788 113.999 29.928C113.999 27.972 115.163 26.7 116.975 26.7C118.763 26.7 119.807 27.924 119.807 29.712C119.807 29.892 119.807 30.096 119.795 30.192H115.007C115.031 31.272 115.631 32.352 116.987 32.352C118.187 32.352 118.643 31.548 118.751 31.116H119.723C119.411 32.256 118.547 33.18 116.975 33.18ZM115.007 29.352H118.787C118.787 28.344 118.067 27.528 116.927 27.528C115.871 27.528 115.067 28.284 115.007 29.352ZM123.634 33.18C121.702 33.18 120.658 31.788 120.658 29.928C120.658 27.972 121.822 26.7 123.634 26.7C125.422 26.7 126.466 27.924 126.466 29.712C126.466 29.892 126.466 30.096 126.454 30.192H121.666C121.69 31.272 122.29 32.352 123.646 32.352C124.846 32.352 125.302 31.548 125.41 31.116H126.382C126.07 32.256 125.206 33.18 123.634 33.18ZM121.666 29.352H125.446C125.446 28.344 124.726 27.528 123.586 27.528C122.53 27.528 121.726 28.284 121.666 29.352ZM128.601 29.736V33H127.641V26.88H128.601V28.092H128.625C128.949 27.288 129.441 26.712 130.317 26.712C130.545 26.712 130.713 26.724 130.881 26.748V27.708C130.737 27.684 130.629 27.672 130.485 27.672C129.357 27.672 128.601 28.56 128.601 29.736ZM134.413 33V24.42H135.493V33H134.413ZM141.199 28.968C141.199 28.176 140.827 27.552 139.867 27.552C138.787 27.552 138.067 28.236 138.067 29.184V33H137.107V26.88H138.067V27.612H138.091C138.415 27.18 139.063 26.712 140.107 26.712C141.223 26.712 142.159 27.324 142.159 28.728V33H141.199V28.968ZM145.941 33.168C144.177 33.168 143.229 32.22 143.193 30.96H144.201C144.249 31.704 144.681 32.328 145.941 32.328C147.117 32.328 147.393 31.788 147.393 31.32C147.393 30.48 146.517 30.396 145.761 30.228C144.693 29.988 143.433 29.7 143.433 28.428C143.433 27.396 144.261 26.712 145.665 26.712C147.249 26.712 148.065 27.576 148.161 28.632H147.153C147.057 28.164 146.817 27.552 145.677 27.552C144.813 27.552 144.441 27.9 144.441 28.392C144.441 29.1 145.221 29.172 146.073 29.364C147.165 29.616 148.401 29.928 148.401 31.284C148.401 32.436 147.501 33.168 145.941 33.168ZM149.488 33V26.88H150.448V33H149.488ZM149.392 25.692V24.54H150.544V25.692H149.392ZM154.519 35.196C152.815 35.196 151.939 34.404 151.843 33.264H152.851C152.971 33.888 153.427 34.356 154.519 34.356C155.707 34.356 156.367 33.864 156.367 32.688V31.728H156.343C155.983 32.256 155.407 32.688 154.399 32.688C152.887 32.688 151.663 31.716 151.663 29.7C151.663 27.684 152.887 26.712 154.399 26.712C155.407 26.712 155.983 27.168 156.343 27.636H156.367V26.88H157.327V32.592C157.327 34.332 156.235 35.196 154.519 35.196ZM152.671 29.7C152.671 30.9 153.259 31.848 154.519 31.848C155.659 31.848 156.367 31.14 156.367 29.7C156.367 28.26 155.659 27.552 154.519 27.552C153.259 27.552 152.671 28.5 152.671 29.7ZM162.913 28.968C162.913 28.176 162.541 27.552 161.581 27.552C160.501 27.552 159.781 28.236 159.781 29.184V33H158.821V24.42H159.781V27.612H159.805C160.129 27.18 160.777 26.712 161.821 26.712C162.937 26.712 163.873 27.324 163.873 28.728V33H162.913V28.968ZM167.177 33.06C166.277 33.06 165.653 32.748 165.653 31.356V27.72H164.753V26.88H165.653V24.84H166.613V26.88H167.813V27.72H166.613V31.404C166.613 32.052 166.769 32.22 167.309 32.22C167.513 32.22 167.609 32.208 167.813 32.184V33C167.537 33.048 167.393 33.06 167.177 33.06ZM171.256 33.168C169.492 33.168 168.544 32.22 168.508 30.96H169.516C169.564 31.704 169.996 32.328 171.256 32.328C172.432 32.328 172.708 31.788 172.708 31.32C172.708 30.48 171.832 30.396 171.076 30.228C170.008 29.988 168.748 29.7 168.748 28.428C168.748 27.396 169.576 26.712 170.98 26.712C172.564 26.712 173.38 27.576 173.476 28.632H172.468C172.372 28.164 172.132 27.552 170.992 27.552C170.128 27.552 169.756 27.9 169.756 28.392C169.756 29.1 170.536 29.172 171.388 29.364C172.48 29.616 173.716 29.928 173.716 31.284C173.716 32.436 172.816 33.168 171.256 33.168Z" fill="#D3D3D3"/>
</svg>
