<svg width="160" height="70" viewBox="0 0 160 70" fill="none" xmlns="http://www.w3.org/2000/svg">
<path d="M64.8364 45.2716L64.6759 24.7284C64.6759 22.642 66.2808 21.0371 68.3672 21.0371H68.6882C70.7746 21.0371 72.3796 22.642 72.3796 24.7284L72.5401 45.2716C72.5401 47.358 70.9351 48.9629 68.8487 48.9629H68.5277C66.4413 48.9629 64.8364 47.358 64.8364 45.2716Z" fill="#4D453F"/>
<path d="M111.84 23.5025L120.186 36.9839C121.951 39.8727 122.433 40.6752 122.433 42.7616C122.433 46.132 119.383 48.6999 116.655 48.6999H105.421C103.334 48.6999 101.729 47.2554 101.729 45.3295V45.169C101.729 43.0826 103.334 41.4777 105.421 41.4777H112.322C112.803 41.4777 112.964 41.4777 113.124 41.1567C113.285 40.8357 113.285 40.6752 112.964 40.3542L108.149 32.4901C107.988 32.3296 107.988 32.1691 107.828 32.1691C107.667 32.1691 107.507 32.3296 107.507 32.4901L100.124 45.3295C99.0009 47.4159 97.5564 48.8604 95.6305 48.8604H81.3467C78.6183 48.8604 75.8899 46.132 75.8899 43.4036V24.9469C75.8899 22.8605 77.4948 21.2556 79.5812 21.2556H80.0627C82.1491 21.2556 83.754 22.8605 83.754 24.9469V40.0332C83.754 40.5147 84.2355 40.9962 84.717 40.9962H91.7787C93.0626 40.9962 93.7046 40.5147 94.5071 39.3913L103.816 23.5025C104.779 22.058 106.223 21.2556 107.988 21.2556C109.593 21.2556 110.877 21.8975 111.84 23.5025Z" fill="#4D453F"/>
<path d="M46.3943 39.1689C45.9128 39.1689 45.4313 39.6504 45.4313 40.1319V45.2676C45.4313 47.3541 43.8264 48.959 41.74 48.959H41.2585C39.1721 48.959 37.5671 47.3541 37.5671 45.2676V35.9591C37.5671 33.5517 39.3326 31.6257 41.9004 31.6257H56.8263C58.9127 31.6257 60.5176 33.2307 60.5176 35.3171V35.4776C60.5176 37.564 58.9127 39.1689 56.9868 39.1689H46.3943Z" fill="#4D453F"/>
<path d="M41.2858 21.6151H58.7796C60.866 21.6151 62.4709 23.2201 62.4709 25.3065V25.467C62.4709 27.5534 60.866 29.1583 58.7796 29.1583H41.2858C39.1994 29.1583 37.5945 27.5534 37.5945 25.467V25.146C37.5945 23.2201 39.1994 21.6151 41.2858 21.6151Z" fill="#4D453F"/>
</svg>
