<svg width="160" height="70" viewBox="0 0 160 70" fill="none" xmlns="http://www.w3.org/2000/svg">
<g clip-path="url(#clip0_882_1846)">
<path d="M34.4415 27.2663C33.1966 26.463 32.9299 24.4195 32.9299 24.4195C31.1882 23.8427 29.492 23.1353 27.8554 22.3033C26.7231 21.5404 26.4564 21.0848 24.7452 20.5888C28.4074 17.5007 27.0822 12.4244 26.7164 14.1916C26.4296 15.5853 23.8126 18.8203 22.6816 20.1857C22.6079 20.1857 22.4351 20.2329 22.3614 20.2329C25.0722 16.9521 23.9198 12.0282 23.6277 13.1672C23.1613 14.9895 18.5933 22.0957 18.5933 22.0957C18.5933 22.0957 15.916 24.5139 15.6305 25.2243C15.6305 25.2243 16.263 25.0706 16.6034 25.0975C16.6034 25.0975 14.1257 29.6185 14.0802 31.6282C14.0802 31.6282 14.4862 31.1861 14.726 31.0257C14.7126 31.6349 15.392 35.8081 15.6587 37.4161C15.9655 39.2709 15.9588 41.2402 14.0869 41.8831C13.7377 42.0025 13.3699 42.0568 13.0015 42.0435C15.9441 45.9956 22.1175 57 22.1175 57C24.7546 55.1251 26.4189 52.5398 26.8651 51.2795C26.9321 51.2862 27.7106 51.634 27.7106 51.634C29.2959 48.5122 28.6433 44.5871 28.1368 43.5896C28.9287 44.0587 29.2155 43.9913 29.2155 43.9913C29.1284 43.1744 27.7307 39.7844 27.7307 39.7844C28.65 39.9044 28.9032 39.5971 28.9032 39.5971C27.1854 38.4311 26.2192 35.2231 26.2192 35.2231C26.6185 35.4576 26.8182 35.5385 27.5914 35.9671C26.2862 33.3414 24.2481 30.81 24.2481 30.81C25.3536 31.1443 26.971 29.9662 27.6905 29.6117C28.2467 29.3497 28.8235 29.1346 29.4151 28.9688C30.1079 28.989 30.9668 29.5982 31.606 29.5511C32.3913 29.4971 34.0301 27.7354 34.2498 27.7489C34.4897 27.7624 34.6492 27.4011 34.4428 27.2663H34.4415ZM24.9998 23.7631H24.973C24.8605 23.7901 24.7466 23.8372 24.6407 23.8898C24.567 23.9235 24.5013 23.9572 24.4343 23.9842C24.1423 24.1165 23.8196 24.1655 23.5017 24.1257C22.7553 24.0313 22.1764 23.4221 21.8106 22.6659C22.0655 22.731 22.3264 22.7689 22.5892 22.7791C23.2216 22.8196 24.0404 22.8128 24.567 22.7252C24.6139 22.7185 24.6675 22.7185 24.7131 22.7185C25.4058 22.7522 25.639 23.8979 25.639 23.8979C25.639 23.8979 25.4259 23.6768 24.9998 23.7645V23.7631ZM142.925 32.1566L139.849 31.426V33.5031H142.925V32.1566ZM116.243 41.011C116.243 40.5959 116.23 40.1403 116.21 39.6173C116.19 39.1298 116.123 38.6455 116.01 38.171C115.895 37.6932 115.712 37.2349 115.465 36.8109C115.195 36.3608 114.837 35.9709 114.413 35.6652C113.966 35.3377 113.394 35.0829 112.715 34.8955C112.036 34.7082 111.21 34.6138 110.237 34.6138C109.611 34.6071 108.979 34.661 108.36 34.7608C107.86 34.8349 107.368 34.9414 106.882 35.0762C106.417 35.1881 105.963 35.3382 105.523 35.525L105.423 35.5655L104.85 38.7937L107.295 39.2628L107.627 37.4081C108.508 37.1785 109.415 37.0661 110.324 37.0738C110.883 37.0738 111.349 37.1344 111.723 37.2477C112.097 37.3609 112.383 37.5092 112.596 37.6965C112.801 37.8684 112.963 38.0864 113.069 38.3327C113.18 38.5861 113.256 38.8544 113.295 39.1293C113.342 39.4111 113.362 39.6982 113.355 39.9866C113.349 40.2886 113.349 40.5757 113.349 40.8506V40.8911L109.42 40.8574C108.707 40.8574 107.995 40.9383 107.296 41.0987C106.667 41.2441 106.07 41.5075 105.538 41.8751C105.03 42.2303 104.619 42.7069 104.34 43.2621C104.053 43.8241 103.907 44.5008 103.92 45.2785C103.924 45.8974 104.063 46.508 104.326 47.0672C104.602 47.6216 104.993 48.1101 105.472 48.5001C106.007 48.9242 106.618 49.2426 107.27 49.4382C108.04 49.6646 108.839 49.775 109.641 49.7658C110.607 49.7658 111.491 49.6188 112.271 49.3236C112.671 49.1509 113.043 48.9207 113.377 48.6402L113.39 49.2967H116.287L116.247 41.011H116.243ZM113.373 46.1951C113.205 46.3122 113.034 46.4237 112.86 46.5294C112.607 46.6832 112.339 46.811 112.061 46.9109C111.722 47.033 111.375 47.1295 111.022 47.1993C110.276 47.3462 109.392 47.3665 108.632 47.1791C108.307 47.1094 107.998 46.9801 107.719 46.7976C107.473 46.6301 107.267 46.4107 107.114 46.1547C106.959 45.8818 106.883 45.5709 106.894 45.257C106.894 44.8216 106.968 44.4738 107.107 44.2191C107.228 43.9781 107.421 43.7814 107.659 43.657C107.917 43.5154 108.199 43.4244 108.491 43.3888C108.83 43.3416 109.171 43.3214 109.516 43.3214L113.371 43.3551V46.1951H113.373ZM128.595 42.3306L132.625 37.4943H135.134V35.0896H128.322V37.4943H129.514L126.964 40.6161L124.034 37.4943H125.498V35.0896H117.828V37.4943H120.331L124.686 42.1298L120.719 46.892H117.828V49.2967H125.013V46.892H123.848L126.345 43.9118L129.174 46.892H128.016V49.2967H135.713V46.892H132.91L128.595 42.3306ZM142.912 35.0896H137.352V37.4943H140.001V46.892H137.352V49.2967H145.569V46.892H142.912V35.0896ZM102.267 38.694C101.961 37.8508 101.471 37.0875 100.832 36.4604C100.194 35.8333 99.4232 35.3584 98.5779 35.0708C97.6639 34.762 96.7052 34.608 95.7411 34.6152C95.315 34.6152 94.8889 34.6556 94.4694 34.7351C94.0701 34.816 93.6842 34.9225 93.2969 35.0573C92.9383 35.1842 92.589 35.3364 92.2517 35.5129C91.9828 35.6519 91.7208 35.804 91.4665 35.9685L87.078 34.4548L86.3316 36.846L89.3748 37.8637V53.5709H86.6907V55.9756H94.9612V53.5709H92.2772V49.3048C92.7195 49.4333 93.1686 49.5363 93.6226 49.6134C94.2751 49.7267 94.9411 49.7806 95.6071 49.7738C96.6657 49.7738 97.6452 49.573 98.5176 49.1848C99.3844 48.8023 100.159 48.2359 100.788 47.5242C101.437 46.786 101.935 45.9256 102.252 44.9928C102.598 44.0209 102.772 42.9291 102.772 41.7578C102.772 40.5864 102.606 39.5809 102.266 38.6967L102.267 38.694ZM99.8227 41.7618C99.8282 42.5275 99.7363 43.2908 99.5494 44.0331C99.3899 44.6627 99.1169 45.2575 98.744 45.7881C98.3989 46.2652 97.9443 46.6513 97.4188 46.9136C96.8922 47.1818 96.2731 47.3152 95.5816 47.3152H95.5347C94.6861 47.3231 93.8422 47.1873 93.0383 46.9136C92.7746 46.832 92.5203 46.7222 92.2799 46.586V38.1804C92.5457 37.9796 92.8313 37.8066 93.1321 37.6642C93.4867 37.5016 93.8542 37.3695 94.2309 37.2692C94.7122 37.149 95.2063 37.0884 95.7022 37.0886H95.7089C98.472 37.0886 99.8241 38.6158 99.8241 41.7632L99.8227 41.7618ZM146.307 35.7137C146.307 35.4455 146.094 35.3053 145.808 35.3053H145.222L145.229 36.6047H145.475V36.1558H145.749L146.055 36.6047H146.356L146.01 36.1087C146.098 36.0881 146.176 36.0374 146.23 35.9654C146.285 35.8933 146.313 35.8044 146.31 35.7137H146.307ZM145.781 35.955H145.467V35.5264H145.781C145.947 35.5264 146.041 35.6005 146.041 35.7407C146.041 35.8674 145.947 35.955 145.781 35.955Z" fill="#F5F5F5"/>
<path d="M145.722 34.6947C145.384 34.6961 145.06 34.8323 144.822 35.0733C144.583 35.3144 144.45 35.6406 144.45 35.9806V35.9873C144.45 36.1559 144.484 36.3227 144.548 36.4782C144.612 36.6338 144.707 36.775 144.825 36.8939C144.944 37.0127 145.085 37.1068 145.24 37.1707C145.395 37.2347 145.561 37.2672 145.729 37.2665C146.066 37.2651 146.39 37.1289 146.629 36.8879C146.867 36.6469 147.001 36.3206 147 35.9806V35.9739C146.999 35.6339 146.863 35.3083 146.624 35.0686C146.384 34.8288 146.06 34.6943 145.722 34.6947ZM146.847 35.9806C146.831 36.2701 146.705 36.5425 146.496 36.742C146.287 36.9415 146.01 37.053 145.722 37.0539C145.433 37.0548 145.156 36.9448 144.945 36.7466C144.735 36.5484 144.608 36.2768 144.59 35.9873V35.9806C144.606 35.6911 144.731 35.4187 144.941 35.2192C145.15 35.0198 145.427 34.9082 145.715 34.9073C146.004 34.9065 146.281 35.0164 146.492 35.2146C146.702 35.4129 146.829 35.6844 146.847 35.9739V35.9806ZM60.0301 36.6573C59.3778 35.9924 58.5895 35.4782 57.72 35.1503C56.8275 34.8025 55.8292 34.6273 54.7438 34.6273C53.7518 34.6154 52.7664 34.7929 51.8401 35.1503C50.9819 35.4853 50.2038 35.9988 49.5567 36.6573C48.9242 37.3002 48.4311 38.1103 48.0787 39.0485C47.7263 39.9866 47.5588 41.0582 47.5588 42.2228C47.5588 43.3874 47.7316 44.4536 48.0787 45.3904C48.4257 46.3272 48.9242 47.1319 49.5567 47.7749C50.2041 48.4313 50.9823 48.9426 51.8401 49.2751C52.767 49.6298 53.7522 49.805 54.7438 49.7914C55.8292 49.7914 56.8275 49.6175 57.72 49.2751C58.591 48.9516 59.3789 48.4394 60.0301 47.7749C60.6878 47.0939 61.1959 46.2815 61.5216 45.3904C61.8673 44.459 62.0482 43.3941 62.0482 42.2228C62.0482 41.0515 61.8686 39.9718 61.5216 39.0417C61.193 38.152 60.6853 37.3402 60.0301 36.6573ZM57.992 46.0078C57.2925 46.8718 56.2004 47.3139 54.7693 47.3139C53.3382 47.3139 52.2983 46.8785 51.6002 46.0078C50.894 45.1168 50.5349 43.8443 50.5349 42.2228C50.5349 40.6013 50.894 39.3086 51.6002 38.4176C52.3064 37.5267 53.3717 37.0913 54.7693 37.0913C56.1669 37.0913 57.2791 37.5334 57.9853 38.4244C58.7049 39.3154 59.0707 40.5945 59.0707 42.2228C59.0707 43.8511 58.7049 45.1303 57.992 46.0078ZM45.2285 45.9606C44.838 46.2232 44.4234 46.4475 43.9903 46.6305C43.5577 46.8254 43.11 46.9846 42.6517 47.1063C42.1253 47.2432 41.5834 47.3107 41.0397 47.3071C39.634 47.3071 38.5687 46.865 37.8706 45.9875C37.1577 45.0898 36.7986 43.8107 36.7986 42.1824C36.7986 40.5541 37.1577 39.2749 37.8706 38.3907C38.57 37.5267 39.6353 37.0846 41.0397 37.0846C41.7659 37.0846 42.3314 37.1317 42.7307 37.2315C43.0899 37.3326 43.2962 37.3919 43.4168 37.4323L43.8429 39.7629L46.2938 39.2197L45.5675 35.4482L45.4737 35.401C45.1141 35.2414 44.7421 35.1116 44.3615 35.0128C43.9074 34.8969 43.447 34.8073 42.9827 34.7446C42.3301 34.6502 41.6775 34.6111 41.0182 34.6179C40.0293 34.6109 39.0475 34.7859 38.1211 35.1341C37.2621 35.4641 36.4834 35.9757 35.8378 36.6343C35.1841 37.316 34.6805 38.1284 34.3598 39.0188C34.014 39.9435 33.8398 41.0151 33.8398 42.1797C33.8398 43.3443 34.0127 44.4172 34.3598 45.3473C34.6792 46.2423 35.1829 47.0594 35.8378 47.7452C36.4831 48.4059 37.2617 48.9197 38.1211 49.2522C39.0449 49.6112 40.0279 49.791 41.0182 49.7819C41.7445 49.7887 42.4627 49.6808 43.1622 49.48C43.7623 49.3108 44.348 49.0935 44.9136 48.8303C45.3265 48.6445 45.7248 48.4273 46.1049 48.1806C46.6047 47.8463 46.6248 47.8261 46.6248 47.7048V47.6441L45.3933 45.842L45.2272 45.9552L45.2285 45.9606ZM71.463 47.2141C71.4429 47.2141 71.4027 47.2141 70.9498 47.295C70.6108 47.3422 70.2637 47.3691 69.918 47.3691C69.3324 47.3287 68.8862 47.1616 68.586 46.8664C68.2794 46.5591 68.055 46.1789 67.9335 45.7611C67.7937 45.2889 67.7154 44.8005 67.7003 44.308C67.6869 43.785 67.6802 43.3106 67.6802 42.8819V37.4903H71.6761V35.0856H67.6802V31.6632L64.8166 32.3399V35.0923H62.1661V37.497H64.8166V44.2959C64.8166 45.2004 64.9292 45.997 65.1556 46.6736C65.3579 47.3116 65.6937 47.8986 66.1405 48.3949C66.5786 48.8621 67.1192 49.2198 67.7191 49.4395C68.3797 49.6729 69.0758 49.7883 69.776 49.7806C70.0761 49.7806 70.3615 49.7603 70.655 49.7334C70.8949 49.7064 71.1347 49.6593 71.3679 49.5999C71.5899 49.5518 71.8081 49.4869 72.0205 49.4058L72.1933 49.3385L71.6211 47.2155H71.4617L71.463 47.2141ZM86.1467 39.0417C85.8195 38.151 85.3142 37.3371 84.662 36.6505C84.0044 35.9873 83.2149 35.4715 82.3452 35.1368C81.446 34.7958 80.4477 34.6206 79.369 34.6206C78.2903 34.6206 77.3443 34.7944 76.4719 35.1436C75.6138 35.4785 74.8357 35.9921 74.1886 36.6505C73.5292 37.3341 73.0229 38.1517 72.7039 39.0485C72.3581 39.9866 72.1906 41.0582 72.1906 42.2228C72.1906 43.3874 72.3635 44.4536 72.7039 45.3904C73.0247 46.2823 73.5309 47.0952 74.1886 47.7749C74.836 48.4313 75.6142 48.9426 76.4719 49.2751C77.3984 49.6228 78.3802 49.7978 79.369 49.7914C80.3837 49.7985 81.3915 49.6237 82.3452 49.2751C83.2155 48.9481 84.0057 48.4364 84.662 47.7749C85.3154 47.0918 85.821 46.2799 86.1467 45.3904C86.4992 44.4523 86.6801 43.3874 86.6801 42.2228C86.6801 41.0582 86.5072 39.9785 86.1467 39.0417ZM82.6239 46.001C81.911 46.8718 80.8591 47.3071 79.4012 47.3071C77.9768 47.3071 76.9369 46.8785 76.2321 46.001C75.5192 45.1168 75.1601 43.8376 75.1601 42.2161C75.1601 40.5945 75.5192 39.3019 76.2321 38.4109C76.945 37.5199 77.9835 37.0846 79.4012 37.0846C80.8189 37.0846 81.9043 37.5334 82.6172 38.4109C83.3435 39.3086 83.7026 40.5878 83.7026 42.2161C83.7026 43.8443 83.3368 45.1303 82.6239 46.001Z" fill="#F5F5F5"/>
</g>
<defs>
<clipPath id="clip0_882_1846">
<rect width="134" height="44" fill="white" transform="translate(13 13)"/>
</clipPath>
</defs>
</svg>
