<?xml version="1.0" encoding="UTF-8"?>
<svg xmlns="http://www.w3.org/2000/svg" width="160" height="70" viewBox="0 0 160 70" fill="none">
  <path d="M150.523 25.2614C149.64 26.099 148.723 26.8992 147.771 27.6608C146.962 28.308 146.194 29.0004 145.468 29.7371C145.449 29.7553 145.419 29.7534 145.405 29.7322C144.894 28.9581 144.517 28.1311 144.275 27.2511C144.094 26.5924 144.009 25.9596 144.018 25.3509C144.037 24.2267 144.344 23.1583 144.94 22.1456C145.184 21.7321 145.439 21.3465 145.709 20.9897C145.937 20.6858 146.243 20.3386 146.623 19.9492C147.647 18.9009 148.737 17.9219 149.891 17.0122C150.677 16.3919 151.418 15.7274 152.114 15.0167C152.139 14.9908 152.183 14.9956 152.202 15.0273C152.468 15.4658 152.701 15.9169 152.904 16.3794C153.121 16.8756 153.279 17.3555 153.38 17.8181C153.817 19.8116 153.408 21.6667 152.15 23.3833C151.616 24.1122 151.074 24.7383 150.523 25.2614Z" fill="#4D453F"></path>
  <path d="M136.541 29.6467C136.503 29.6197 136.469 29.589 136.438 29.5534C135.457 28.4484 134.643 27.2338 133.996 25.9086C133.539 24.971 133.089 24.0305 132.647 23.0871C132.33 22.4091 131.959 21.7379 131.535 21.0753C131.513 21.0407 131.53 20.9955 131.569 20.983C132.677 20.6387 133.821 20.5069 135.001 20.5887C135.817 20.6454 136.622 20.8849 137.417 21.308C138.367 21.8138 139.178 22.4851 139.849 23.3208C140.252 23.8218 140.616 24.3498 140.942 24.9047C141.583 25.9981 142.165 27.1223 142.688 28.2772C143.123 29.2408 143.63 30.2102 144.208 31.1863C144.232 31.2277 144.211 31.2805 144.164 31.293C143.636 31.4354 143.124 31.5431 142.63 31.6152C140.289 31.9604 138.295 31.3315 136.648 29.7303C136.626 29.7092 136.591 29.6813 136.541 29.6467Z" fill="#4D453F"></path>
  <path d="M145.626 40.8541C145.571 40.9109 145.513 40.9715 145.456 41.0378C145.423 41.0763 145.362 41.0705 145.336 41.0272C145.001 40.4464 144.71 39.8453 144.465 39.2231C144.119 38.3461 143.958 37.4479 143.984 36.5295C144.002 35.9034 144.123 35.2764 144.349 34.6504C144.632 33.8656 145.033 33.1357 145.551 32.4616C145.821 32.1106 146.103 31.7711 146.398 31.4422C146.65 31.1605 146.964 30.8479 147.336 30.5065C148.371 29.5593 149.432 28.6428 150.52 27.7552C151.073 27.3042 151.592 26.8291 152.076 26.3309C152.1 26.3059 152.143 26.3098 152.162 26.3396C152.608 27.0484 152.952 27.8013 153.197 28.5995C153.785 30.5238 153.557 32.3376 152.514 34.0407C151.824 35.1658 150.984 36.1669 149.991 37.044C149.047 37.8777 148.089 38.6942 147.116 39.4943C146.596 39.9223 146.099 40.3752 145.626 40.8541Z" fill="#4D453F"></path>
  <path d="M118.349 36.0649L122.875 36.0678C122.924 36.0687 122.964 36.1082 122.964 36.1572V39.6481C122.964 39.6914 122.929 39.726 122.885 39.726H118.375C118.331 39.726 118.295 39.7616 118.295 39.8048V54.5579C118.295 54.6261 118.24 54.681 118.172 54.68L114.228 54.6502C114.178 54.6502 114.137 54.6088 114.137 54.5588V39.8241C114.137 39.7702 114.093 39.726 114.039 39.726L111.299 39.7327C111.255 39.7337 111.219 39.6981 111.219 39.6548L111.225 36.1361C111.225 36.0986 111.255 36.0678 111.293 36.0678L114.044 36.0639C114.096 36.0639 114.139 36.0235 114.138 35.9735C114.126 34.6926 114.134 33.4347 114.161 32.2009C114.174 31.6364 114.291 31.0209 114.511 30.3526C114.833 29.3832 115.448 28.6869 116.356 28.2638C116.588 28.1551 116.851 28.0609 117.142 27.9792C117.389 27.9109 117.662 27.8589 117.961 27.8243C118.642 27.7445 119.443 27.7051 120.362 27.7051C121.505 27.7051 122.677 27.7051 123.878 27.7051C123.924 27.7051 123.961 27.7416 123.961 27.7868V31.5547C123.961 31.6095 123.916 31.6537 123.862 31.6547C122.273 31.6729 120.674 31.6787 119.065 31.672C119.063 31.672 118.987 31.6681 118.838 31.6595C118.49 31.6393 118.311 31.8143 118.301 32.1826C118.285 32.7616 118.285 34.0396 118.301 36.0178C118.301 36.0437 118.322 36.0649 118.349 36.0649Z" fill="#4D453F"></path>
  <path d="M10.2428 43.386C10.2097 43.386 10.1825 43.4129 10.1825 43.4466V54.551C10.1825 54.6087 10.1348 54.6558 10.0765 54.6558H6.07976C6.03891 54.6558 6.00584 54.6231 6.00584 54.5837L6 28.7666C6 28.7243 6.03502 28.6907 6.07781 28.6897L10.0794 28.6734C10.1329 28.6724 10.1767 28.7147 10.1767 28.7676L10.1825 39.5566C10.1825 39.5835 10.2049 39.6057 10.2321 39.6057C13.4575 39.6057 16.6585 39.6008 19.8363 39.5912C19.9598 39.5903 20.0804 39.6028 20.1981 39.6287C20.2496 39.6403 20.2983 39.6018 20.2983 39.5499V28.7262C20.2983 28.707 20.3148 28.6907 20.3343 28.6907H24.4137C24.4506 28.6907 24.4808 28.7205 24.4808 28.757V54.5597C24.4808 54.6126 24.437 54.6558 24.3835 54.6558H20.4043C20.3459 54.6558 20.2983 54.6087 20.2983 54.551V43.4581C20.2983 43.4148 20.2633 43.3802 20.2195 43.3802L10.2428 43.386Z" fill="#4D453F"></path>
  <path d="M62.061 28.6686C62.4335 28.6619 62.8255 28.6619 63.2389 28.6686C63.2914 28.6696 63.3332 28.7129 63.3323 28.7648C63.3002 32.4124 63.3021 36.0735 63.3381 39.749C63.3391 39.7807 63.3546 39.8086 63.3799 39.8221C63.4801 39.875 63.5647 39.8721 63.6338 39.8125C63.6727 39.7788 63.7058 39.7144 63.734 39.6182C63.9703 38.8056 64.3186 38.0901 64.7796 37.4718C65.9011 35.9706 67.3747 35.1301 69.2004 34.9512C69.8161 34.8906 70.462 34.9176 71.138 35.0301C73.6718 35.4532 75.5364 36.8361 76.7318 39.1787C77.045 39.7933 77.294 40.4472 77.4788 41.1425C77.6286 41.7041 77.7366 42.3359 77.8017 43.0379C78.005 45.2113 77.7881 47.3366 77.151 49.4148C76.9293 50.138 76.6112 50.8631 76.1959 51.5911C75.7066 52.4498 75.0861 53.1845 74.3332 53.7962C73.8206 54.2135 73.2681 54.5453 72.6767 54.7925C71.7303 55.1877 70.7654 55.3502 69.783 55.281C67.5002 55.1204 65.7688 54.0837 64.5899 52.1729C64.2038 51.5468 63.9081 50.8198 63.7038 49.9918C63.662 49.8235 63.5492 49.7793 63.3644 49.8581C63.3381 49.8697 63.3206 49.8956 63.3206 49.9264L63.3148 54.5684C63.3148 54.6165 63.2759 54.6559 63.2272 54.6559H59.2111C59.1809 54.6559 59.1566 54.6319 59.1566 54.602L59.1508 28.7465C59.1508 28.7023 59.1867 28.6667 59.2315 28.6667C59.7908 28.6677 60.3423 28.6715 60.8841 28.6773C61.1506 28.6802 61.5426 28.6773 62.061 28.6686ZM71.955 40.2231C71.3782 39.5557 70.7003 39.1355 69.9231 38.9624C68.5682 38.6614 67.3883 39.0056 66.3855 39.9971C65.8145 40.5616 65.4011 41.1858 65.1444 41.8714C64.4314 43.7755 64.3711 45.7258 64.9615 47.7232C65.2095 48.5647 65.6035 49.3023 66.1414 49.9379C66.5314 50.3986 66.9973 50.7496 67.5391 50.991C68.0731 51.2304 68.6314 51.3401 69.2131 51.3218C69.8443 51.3016 70.4211 51.1295 70.9444 50.8034C71.5961 50.3976 72.1106 49.8802 72.488 49.2523C72.9102 48.5512 73.2059 47.7771 73.3741 46.9317C73.6562 45.5219 73.6193 44.1217 73.2642 42.7302C73.025 41.7926 72.5882 40.9569 71.955 40.2231Z" fill="#4D453F"></path>
  <path d="M79.9844 53.1037C79.2772 52.3526 78.8425 51.4679 78.6781 50.4495C78.6139 50.0504 78.5837 49.6494 78.5876 49.2464C78.6003 47.7741 79.1411 46.5624 80.2091 45.6103C80.6477 45.2189 81.1817 44.8766 81.811 44.5852C83.0561 44.0072 84.3585 43.6129 85.7192 43.4014C87.4487 43.1331 89.2296 42.8705 91.0621 42.6138C91.1156 42.607 91.1555 42.5618 91.1565 42.508C91.1594 42.0954 91.1575 41.7031 91.1487 41.3319C91.139 40.8847 91.0806 40.5433 90.9736 40.3096C90.781 39.8893 90.4591 39.5605 90.0087 39.3229C89.6051 39.1104 89.1956 38.9729 88.7783 38.9094C87.8319 38.7651 86.9234 38.8421 86.0529 39.1392C85.5267 39.3191 85.1026 39.5528 84.7806 39.8403C84.4081 40.1721 84.1289 40.5827 83.9441 41.0703C83.9256 41.1193 83.8731 41.1482 83.8206 41.1386L79.7237 40.3702C79.6566 40.3577 79.6138 40.2932 79.6274 40.2278C79.9221 38.7892 80.6302 37.6063 81.7527 36.6783C82.2546 36.2638 82.8732 35.9109 83.6095 35.6186C84.9839 35.0733 86.4789 34.8156 88.0935 34.8454C89.4057 34.8694 90.6001 35.1185 91.6778 35.5907C93.5347 36.4052 94.6951 37.7525 95.159 39.6335C95.2466 39.9874 95.2942 40.4385 95.301 40.9856C95.3399 43.7553 95.3468 46.5249 95.3205 49.2945C95.3166 49.6946 95.3331 50.0052 95.3701 50.2264C95.4071 50.4447 95.515 50.6053 95.693 50.7091C95.8049 50.7745 95.9819 50.8111 96.2241 50.8178C97.1384 50.8457 98.0537 50.8447 98.969 50.8168C98.9962 50.8159 99.0176 50.7937 99.0176 50.7668L99.0118 28.8109C99.0118 28.7609 99.0536 28.7195 99.1042 28.7205L103.139 28.7445C103.166 28.7445 103.188 28.7657 103.188 28.7916L103.194 54.6414C103.194 54.6885 103.155 54.727 103.108 54.728C101.082 54.7376 99.0682 54.7299 97.0664 54.7039C96.4031 54.6953 95.7806 54.602 95.1989 54.4231C94.661 54.2567 94.236 53.9711 93.9247 53.5653C93.6854 53.2547 93.5026 52.8046 93.3761 52.2151C93.239 51.5766 93.1855 50.9255 93.2156 50.2629C93.2176 50.2321 93.202 50.2033 93.1758 50.1908C92.988 50.0937 92.8703 50.1369 92.8227 50.3206C92.8052 50.3879 92.7954 50.4245 92.7935 50.4312C92.4229 51.5737 91.8305 52.519 91.0174 53.2672C89.6547 54.5222 88.0313 55.1626 86.1482 55.1886C85.3068 55.1992 84.4742 55.1251 83.6494 54.9655C82.8431 54.8097 82.0785 54.5385 81.3568 54.1529C80.8403 53.8769 80.3832 53.5278 79.9844 53.1037ZM83.4889 50.385C83.8109 50.6399 84.1523 50.8159 84.5131 50.9111C85.7883 51.2505 87.046 51.1659 88.2842 50.6562C90.2937 49.8292 91.2362 48.328 91.1108 46.1537C91.1088 46.1152 91.0738 46.0864 91.0349 46.0912C89.7529 46.2412 88.4826 46.4018 87.2249 46.573C86.1657 46.7163 85.5909 46.798 85.4994 46.8182C84.9032 46.9499 84.3594 47.1682 83.8682 47.4731C83.3868 47.7722 83.0814 48.1915 82.9539 48.731C82.8771 49.055 82.8771 49.3512 82.9559 49.6176C83.0454 49.9186 83.2234 50.1744 83.4889 50.385Z" fill="#4D453F"></path>
  <path d="M105.349 29.0311L109.424 29.0244C109.448 29.0244 109.467 29.0436 109.467 29.0667L109.476 33.8866C109.476 33.9097 109.456 33.9289 109.433 33.9289L105.357 33.9357C105.334 33.9357 105.315 33.9164 105.315 33.8934L105.306 29.0735C105.306 29.0494 105.324 29.0311 105.349 29.0311Z" fill="#4D453F"></path>
  <path d="M32.0044 50.465C32.4314 50.7564 32.9002 50.9661 33.4109 51.0921C34.0723 51.2555 34.76 51.3209 35.473 51.2873C37.0652 51.2123 38.284 50.5372 39.1283 49.261C39.1516 49.2254 39.1964 49.2091 39.2372 49.2216L43.0734 50.366C43.1143 50.3785 43.1337 50.4237 43.1152 50.4622C42.2428 52.223 40.9413 53.5222 39.2109 54.3617C37.7607 55.0647 36.1986 55.3638 34.5246 55.2609C31.8838 55.0984 29.7498 54.0165 28.1225 52.0172C27.3356 51.0507 26.7423 49.9477 26.3444 48.709C25.6295 46.4866 25.5449 44.2372 26.0896 41.9629C26.6119 39.7799 27.7149 38.0345 29.3986 36.7266C30.7847 35.6505 32.4275 35.0542 34.3291 34.936C36.7287 34.7869 38.7888 35.4841 40.5114 37.0276C41.201 37.645 41.8041 38.4105 42.3196 39.3231C43.0219 40.5665 43.4839 41.8927 43.7047 43.3015C43.8769 44.393 43.943 45.4778 43.9051 46.5568C43.9041 46.5953 43.872 46.626 43.8331 46.626H30.3178C30.2779 46.626 30.2449 46.6587 30.2449 46.6982C30.2371 47.705 30.4773 48.5984 30.9666 49.3783C31.2418 49.8178 31.5881 50.1804 32.0044 50.465ZM36.1713 43.2862C37.253 43.2833 38.3355 43.2852 39.4191 43.29C39.4522 43.291 39.4784 43.264 39.4775 43.2313C39.4502 41.7783 38.9065 40.6521 37.8473 39.853C37.3454 39.475 36.7608 39.2115 36.0945 39.0644C35.1967 38.8673 34.3067 38.8903 33.4226 39.1356C32.7505 39.3212 32.1795 39.6116 31.7077 40.0059C30.8012 40.7646 30.311 41.8158 30.2371 43.1611C30.2332 43.2381 30.2954 43.3025 30.3732 43.3025C32.2729 43.2958 34.2056 43.291 36.1713 43.2862Z" fill="#4D453F"></path>
  <path d="M125.925 52.3297C124.754 51.0102 123.978 49.4773 123.596 47.7319C123.187 45.8653 123.16 44.0689 123.515 42.3446C123.886 40.5434 124.683 38.9845 125.903 37.668C126.346 37.191 126.836 36.7746 127.374 36.4188C129.153 35.2407 131.144 34.756 133.347 34.9657C134.931 35.1167 136.335 35.6716 137.562 36.6303C138.052 37.0141 138.509 37.466 138.934 37.9882C139.662 38.8816 140.222 39.8779 140.616 40.9771C141.106 42.3446 141.374 43.7544 141.417 45.2065C141.431 45.6691 141.43 46.1182 141.415 46.5538C141.414 46.5942 141.38 46.626 141.34 46.626H127.81C127.779 46.626 127.755 46.65 127.754 46.6798C127.75 47.6136 127.961 48.4695 128.386 49.2465C128.627 49.686 128.96 50.0611 129.385 50.3717C129.749 50.6381 130.195 50.8516 130.721 51.0131C131.896 51.3747 133.097 51.3786 134.324 51.0247C135.331 50.7342 136.094 50.1572 136.611 49.2937C136.649 49.2302 136.726 49.2013 136.797 49.2225L140.597 50.3611C140.644 50.3755 140.667 50.4284 140.645 50.4717C139.719 52.3162 138.33 53.6529 136.478 54.4819C135.108 55.0954 133.643 55.3589 132.084 55.2724C129.594 55.1339 127.54 54.153 125.925 52.3297ZM131.493 43.2899C132.084 43.2976 133.341 43.2967 135.266 43.2861C135.345 43.2861 135.622 43.2938 136.096 43.3101C136.38 43.3207 136.657 43.313 136.928 43.288C136.967 43.2842 136.997 43.2515 136.996 43.213C136.977 42.2773 136.727 41.4608 136.246 40.7617C135.877 40.226 135.398 39.8029 134.811 39.4923C134.226 39.1836 133.577 39.0047 132.861 38.9566C132.154 38.9095 131.484 38.9778 130.852 39.1615C130.201 39.3509 129.636 39.6538 129.157 40.0703C128.278 40.8329 127.813 41.8599 127.759 43.1514C127.755 43.2342 127.822 43.3024 127.906 43.3005C129.069 43.2784 130.265 43.2745 131.493 43.2899Z" fill="#4D453F"></path>
  <path d="M45.298 38.2882C45.2912 37.6871 45.2902 37.0697 45.297 36.435C45.298 36.3802 45.3427 36.336 45.3982 36.336H49.4134C49.4493 36.336 49.4785 36.3648 49.4785 36.4004V40.2567C49.4785 40.2885 49.5019 40.3154 49.534 40.3202C49.6847 40.3433 49.7956 40.3154 49.8656 40.2365C49.8744 40.2269 49.9182 40.1365 49.996 39.9663C50.5475 38.7613 51.3334 37.7535 52.3537 36.9428C52.8683 36.5341 53.4431 36.2513 54.0802 36.0936C54.3895 36.0167 54.8428 35.9782 55.441 35.9792C56.0664 35.9802 56.688 35.9725 57.3066 35.958C57.3338 35.9571 57.3572 35.9792 57.3572 36.0071V39.898C57.3572 39.9451 57.3183 39.9836 57.2706 39.9846C56.4487 39.9894 55.6297 39.9923 54.8146 39.9913C54.1308 39.9913 53.6406 40.0278 53.3439 40.1009C52.8527 40.2221 52.4004 40.4356 51.989 40.7414C51.4025 41.177 50.9249 41.7242 50.5562 42.383C50.1604 43.0888 49.8812 43.838 49.7178 44.6294C49.5593 45.3988 49.4795 46.1768 49.4795 46.9625C49.4824 49.5167 49.4795 52.0516 49.4727 54.5664C49.4727 54.626 49.4231 54.6741 49.3618 54.6741L45.3991 54.6568C45.3554 54.6558 45.3203 54.6212 45.3203 54.5789C45.2873 49.7754 45.2834 44.9622 45.3087 40.1413C45.3116 39.7326 45.3077 39.1152 45.298 38.2882Z" fill="#4D453F"></path>
  <path d="M105.373 36.3381H109.408C109.443 36.3381 109.471 36.366 109.471 36.4006V54.5955C109.471 54.6301 109.443 54.658 109.408 54.658H105.373C105.338 54.658 105.31 54.6301 105.31 54.5955V36.4006C105.31 36.366 105.338 36.3381 105.373 36.3381Z" fill="#4D453F"></path>
</svg>
