<svg width="160" height="70" viewBox="0 0 160 70" fill="none" xmlns="http://www.w3.org/2000/svg">
<g clip-path="url(#clip0_1039_1865)">
<path fill-rule="evenodd" clip-rule="evenodd" d="M6 46.5658H29.1316V23.4342H6V46.5658ZM38.3419 41.9511V41.9549L38.338 41.9511H38.3419ZM38.3419 41.9511H45.3469C46.4187 41.9511 47.1781 41.9009 47.6215 41.8046C48.0649 41.7082 48.5159 41.5463 48.967 41.3226C49.4181 41.099 49.765 40.8677 50.0002 40.6326C50.3472 40.3087 50.6132 39.9039 50.806 39.4181C50.9987 38.9324 51.0951 38.3926 51.0951 37.7989C51.0951 36.97 50.8831 36.2761 50.4667 35.7132C50.0503 35.1504 49.4875 34.7764 48.7781 34.5836C49.9771 33.8126 50.5785 32.8757 50.5785 31.6344C50.5785 30.393 50.0503 29.4523 48.9978 28.8084C48.1882 28.3111 46.9276 28.0605 45.2158 28.0605H38.3419V41.9511ZM42.7446 33.6429V31.191H44.198C44.8419 31.191 45.2659 31.218 45.4626 31.2758C45.7324 31.3529 45.9483 31.4956 46.1102 31.7037C46.2722 31.9119 46.3531 32.1548 46.3531 32.4285C46.3531 32.7832 46.2143 33.0762 45.9367 33.3037C45.6592 33.5311 45.1696 33.6429 44.4679 33.6429H42.7446ZM42.7446 38.7743V36.1412H44.599C45.5011 36.1412 46.091 36.253 46.3801 36.4766C46.6693 36.7002 46.8119 37.0125 46.8119 37.4327C46.8119 37.8529 46.6654 38.1845 46.3724 38.4196C46.0794 38.6548 45.4895 38.7743 44.6028 38.7743H42.7446ZM63.0773 28.0605H58.5396H58.5319V36.145C58.5319 37.1435 58.5975 37.8799 58.7247 38.3579C58.929 39.1097 59.2066 39.715 59.5613 40.1622C59.916 40.6094 60.3555 41.0027 60.8836 41.3342C61.4118 41.6658 62.0364 41.9164 62.7573 42.0898C63.4782 42.2633 64.3302 42.3481 65.3133 42.3481C66.1538 42.3481 66.9364 42.2633 67.6535 42.0937C68.3744 41.9241 68.999 41.6735 69.5271 41.3458C70.0553 41.0181 70.5064 40.6287 70.8726 40.1699C71.2389 39.7111 71.5049 39.1868 71.663 38.5931C71.821 37.9994 71.902 37.1937 71.902 36.172V28.0605H67.3643V36.6231C67.3643 37.4134 67.1793 37.9878 66.8092 38.3502C66.4391 38.7088 65.9186 38.89 65.2478 38.89C64.789 38.89 64.3765 38.7974 64.0218 38.6162C63.6671 38.435 63.4165 38.196 63.2816 37.9069C63.1467 37.6177 63.0773 37.1859 63.0773 36.6192V28.0605ZM79.7822 28.0605V41.9549L79.7899 41.9588H84.1926V37.1243H85.9622C86.5443 37.1243 86.9761 37.1898 87.2653 37.3247C87.5544 37.4597 87.7703 37.6563 87.9129 37.9146C88.0556 38.1729 88.1288 38.5353 88.1365 39.0095L88.1635 40.035C88.1828 40.941 88.2561 41.5809 88.3833 41.9588H92.998V41.527C92.8323 41.5154 92.7205 41.4691 92.6549 41.3843C92.6048 41.3265 92.5701 41.1376 92.5585 40.8176L92.493 38.624C92.466 37.6486 92.2964 36.9546 91.9764 36.5421C91.6564 36.1296 91.0511 35.7556 90.1567 35.4164C90.5885 35.3007 90.947 35.1349 91.2285 34.919C91.6294 34.6145 91.9417 34.2251 92.1614 33.7509C92.3812 33.2767 92.493 32.6907 92.493 31.9967C92.493 31.4339 92.4197 30.9674 92.2771 30.5896C92.1345 30.2118 91.9186 29.8571 91.6256 29.5217C91.3326 29.1863 90.9817 28.9087 90.5615 28.6928C90.1413 28.4769 89.6093 28.315 88.9654 28.2147C88.3216 28.1106 87.5236 28.0605 86.5713 28.0605H79.7822ZM86.3593 34.0747H84.1849V31.403H86.4171C87.1072 31.403 87.5891 31.5187 87.8628 31.7539C88.1365 31.989 88.2753 32.3283 88.2753 32.737C88.2753 33.1456 88.1327 33.4695 87.8435 33.7123C87.5544 33.9552 87.0609 34.0747 86.3593 34.0747ZM112.093 28.0605H99.3438V31.7192H103.45V41.9549H107.987V31.7192H112.093V28.0605ZM129.874 41.2841C130.969 40.594 131.786 39.6957 132.322 38.5893H132.318C132.854 37.4828 133.124 36.2645 133.124 34.8419C133.124 33.4193 132.819 32.1548 132.21 31.0638C131.601 29.9727 130.722 29.1361 129.569 28.5617C128.416 27.9873 127.156 27.6981 125.783 27.6981C125.062 27.6981 124.368 27.7829 123.709 27.9526C123.046 28.1222 122.437 28.3612 121.874 28.6696C121.311 28.9781 120.771 29.4214 120.251 29.9997C119.73 30.578 119.314 31.2874 119.01 32.1317C118.705 32.9721 118.551 33.9244 118.551 34.9846C118.551 37.1975 119.218 38.9748 120.544 40.3126C121.87 41.6503 123.647 42.3173 125.868 42.3173C127.445 42.3173 128.779 41.9742 129.874 41.2841ZM127.225 38.4967C126.797 38.7589 126.323 38.89 125.806 38.89V38.8938C125.028 38.8938 124.407 38.6124 123.94 38.0495C123.347 37.317 123.05 36.2992 123.05 34.9961C123.05 34.1249 123.181 33.3962 123.439 32.8064C123.698 32.2165 124.048 31.7809 124.488 31.4994C124.927 31.218 125.398 31.0792 125.895 31.0792C126.342 31.0792 126.743 31.1794 127.098 31.3838C127.453 31.5881 127.738 31.8387 127.946 32.1394C128.154 32.4401 128.324 32.8372 128.447 33.323C128.571 33.8087 128.632 34.3677 128.632 34.9923C128.632 35.8597 128.505 36.5961 128.251 37.1975C127.996 37.8028 127.653 38.2346 127.225 38.4967ZM140.599 28.0605V41.9549H144.975V34.6954L149.659 41.9549H153.996V28.0605H149.628V35.5012L144.84 28.0605H140.599ZM21.1859 32.9669C21.0807 33.017 20.9826 33.0637 20.9006 33.0916V33.0955C20.731 33.1533 20.5459 33.0801 20.4611 32.922C20.359 32.7344 20.203 32.4152 20.0201 32.0408C19.7818 31.5533 19.4978 30.9721 19.2274 30.4662C19.0977 30.2249 18.9595 29.9635 18.8198 29.6992C18.3991 28.9032 17.9641 28.0801 17.7008 27.6981C17.6275 27.594 17.4772 27.5979 17.4116 27.702L16.7485 28.7275C16.6945 28.8123 16.6097 28.8778 16.5095 28.9048L16.1201 29.0166C15.989 29.0552 15.8772 29.1438 15.8117 29.2633L14.1346 32.336C14.0652 32.4632 13.9457 32.5557 13.8069 32.5866C13.789 32.5904 13.7698 32.5946 13.7494 32.599C13.6466 32.6211 13.5147 32.6495 13.3829 32.6753C13.2595 32.6984 13.1593 32.7793 13.1091 32.895C12.9087 33.3615 12.5193 34.2636 12.3227 34.7185C12.2533 34.8728 12.1299 35 11.9757 35.0694L11.6865 35.2005C11.5092 35.2776 11.3781 35.4279 11.3164 35.6091C11.3164 35.6091 10.8769 36.7426 10.5377 37.7642C10.2292 38.6895 9.42735 41.4691 9.42735 41.4691C9.39265 41.5694 9.37723 41.7004 9.48903 41.8045C9.55843 41.8701 9.72806 41.8662 9.80516 41.7313C9.80516 41.7313 10.8808 39.4374 11.2702 38.6895C11.3241 38.5854 11.4591 38.5468 11.5824 38.6278C11.6731 38.6862 11.7396 38.7973 11.8098 38.9148C11.8741 39.0221 11.9415 39.1348 12.0335 39.2176C12.1299 39.3063 12.2687 39.2716 12.3188 39.1483C12.4576 38.809 12.7853 37.7372 12.8971 37.2977C12.9896 36.9315 13.3019 36.8968 13.4792 37.1666L13.6065 37.3247C13.7414 37.4943 13.9033 37.6293 14.0922 37.7295L14.3313 37.8567C14.4006 37.8914 14.4546 37.9493 14.4855 38.0225L14.7476 38.6316C14.8286 38.8128 15.0021 38.9324 15.1987 38.9439H15.2796C15.4608 38.9516 15.6266 39.0519 15.7114 39.2138C15.7456 39.2787 15.7857 39.3584 15.8294 39.4454C15.9388 39.663 16.071 39.9259 16.1895 40.1159C16.2743 40.2509 16.4555 40.2239 16.5133 40.0735C16.6444 39.7343 16.841 39.0904 16.922 38.6702C17.0184 38.1844 17.3152 38.2461 17.4193 38.3772C17.4269 38.3882 17.4392 38.4063 17.4541 38.4282C17.5069 38.506 17.5927 38.6324 17.6198 38.6625C17.6969 38.7512 17.8627 38.8013 17.9321 38.597C18.0362 38.2924 18.1557 37.6871 18.2058 37.3016C18.2328 37.105 18.4487 37.078 18.5528 37.2476C18.6646 37.4288 18.8419 37.7526 18.9422 37.9454C19.0116 38.0803 19.0732 38.2191 19.1041 38.3656L19.2467 39.0133C19.3123 39.3102 19.478 39.5762 19.7016 39.7805C19.7261 39.8028 19.7508 39.8272 19.7768 39.8528C19.8451 39.9201 19.9222 39.996 20.0255 40.0658C20.1257 40.1313 20.2529 40.1044 20.3031 39.9926C20.365 39.8458 20.4435 39.6136 20.5012 39.4429C20.5118 39.4117 20.5216 39.3826 20.5305 39.3564C20.5498 39.2948 20.5999 39.2523 20.6616 39.2408C20.6812 39.2367 20.699 39.2331 20.7168 39.2296C20.7654 39.2199 20.8127 39.2104 20.8891 39.1907C21.0587 39.1444 21.2013 39.021 21.2707 38.8553L21.4134 38.516C21.4712 38.3772 21.6563 38.3772 21.7295 38.5083C21.7796 38.6008 21.8722 38.7936 21.9146 38.8977C21.9377 38.9516 21.9608 39.0056 21.9763 39.0634L22.0881 39.4952C22.1305 39.6533 22.196 39.8037 22.2847 39.9424L22.3348 40.0195C22.4659 40.2239 22.6509 40.3935 22.8668 40.5092C22.9594 40.5593 23.0673 40.5207 23.1059 40.4282C23.2221 40.1559 23.2863 39.7835 23.3412 39.4644C23.3609 39.3498 23.3795 39.242 23.3989 39.1483C23.4335 38.9786 23.661 38.9439 23.7497 39.0866C24.166 39.769 25.3342 41.7544 25.3342 41.7544C25.3997 41.8392 25.5154 41.8894 25.6311 41.8122C25.7159 41.7544 25.7467 41.6426 25.7043 41.5424C25.6978 41.5285 25.648 41.405 25.5645 41.1978C25.2538 40.4266 24.4763 38.4967 23.7227 36.7464C22.8514 34.7147 22.0071 32.9528 22.0071 32.9528C21.9454 32.8063 21.7835 32.7369 21.6293 32.7832C21.4831 32.8253 21.328 32.8992 21.1859 32.9669Z" fill="#F5F5F5"/>
</g>
<defs>
<clipPath id="clip0_1039_1865">
<rect width="148" height="23.1316" fill="white" transform="translate(6 23.4342)"/>
</clipPath>
</defs>
</svg>
