<svg width="160" height="81" viewBox="0 0 160 81" fill="none" xmlns="http://www.w3.org/2000/svg">
<g clip-path="url(#clip0_1590_288)">
<path d="M66.4677 14.7871C64.2756 14.8596 61.9568 15.0228 61.3046 15.1315C60.6525 15.2403 59.5112 15.331 58.7684 15.331C58.0256 15.331 56.7575 15.4579 55.9604 15.6029C55.1633 15.7479 53.9858 15.8748 53.3336 15.8748C52.6814 15.8748 51.667 16.0018 51.0691 16.1468C50.4713 16.2918 49.493 16.4187 48.8952 16.4187C48.2974 16.4187 47.4097 16.5456 46.9206 16.6907C46.4314 16.8357 45.58 16.9626 45.0184 16.9626C44.4568 16.9626 43.6054 17.0895 43.1162 17.2346C42.6271 17.3796 41.8843 17.5065 41.4858 17.5065C41.0691 17.5065 40.3445 17.6334 39.8554 17.7784C39.3662 17.9235 38.6235 18.0504 38.2068 18.0504C37.772 18.0504 37.0836 18.1773 36.667 18.3223C36.2503 18.4674 35.5981 18.5943 35.2358 18.5943C34.8735 18.5943 34.1851 18.7212 33.6959 18.8662C33.2068 19.0112 32.5003 19.1382 32.138 19.1382C31.7575 19.1382 31.1597 19.2651 30.8155 19.4101C30.4532 19.5551 29.8191 19.682 29.4206 19.682C29.0039 19.682 28.4967 19.7727 28.2974 19.8815C28.08 20.0084 27.4459 20.1534 26.9025 20.2441C26.3409 20.3166 25.5619 20.4616 25.1633 20.5704C24.7648 20.661 24.0764 20.8423 23.6235 20.9511C23.1706 21.0599 22.4097 21.223 21.9025 21.2956C21.4133 21.3862 20.7612 21.5312 20.4894 21.64C20.1996 21.7669 19.7104 21.8576 19.4025 21.8576C19.0764 21.8757 18.6235 21.9845 18.3699 22.1295C18.1162 22.2746 17.6452 22.3833 17.3191 22.4015C16.993 22.4015 16.5401 22.4921 16.3228 22.619C16.1054 22.7278 15.5619 22.891 15.109 22.9635C14.6561 23.036 14.0583 23.1629 13.7503 23.2717C13.0619 23.5074 11.7757 23.8337 10.8517 24.015C10.4532 24.0875 9.94594 24.2507 9.72855 24.3594C9.51116 24.4864 9.11261 24.577 8.82275 24.577C8.55101 24.5951 8.11623 24.7039 7.86261 24.8489C7.60898 24.994 7.19232 25.1028 6.93869 25.1209C6.66696 25.1209 6.35898 25.2478 6.23217 25.3928C6.10536 25.5379 5.88797 25.6648 5.74304 25.6648C4.76478 25.6648 1.90246 29.2725 1.88435 30.5235C1.88435 30.6866 1.75753 30.9948 1.61261 31.1761C1.46768 31.3756 1.34087 31.7925 1.34087 32.0826C1.32275 32.3908 1.21406 32.844 1.06913 33.0979C0.924201 33.3517 0.815506 33.8049 0.79739 34.1131C0.79739 34.4213 0.688694 35.0196 0.543767 35.4184C0.181448 36.4156 0.000288352 41.3649 0.235796 43.7943C0.416955 45.7704 0.688694 47.3114 1.01478 48.236C1.12348 48.5261 1.25029 49.0699 1.30464 49.4144C1.34087 49.7589 1.50391 50.2121 1.63072 50.4115C1.77565 50.611 1.88435 50.901 1.88435 51.0823C1.88435 52.0613 4.14884 55.1252 5.19956 55.5784C5.41696 55.6872 5.72493 55.8322 5.86985 55.9229C6.81188 56.4668 7.35536 56.6662 7.80826 56.6662C8.08 56.6843 8.51478 56.7931 8.7684 56.9381C9.02203 57.0832 9.47493 57.192 9.76478 57.2101C10.0728 57.2101 10.5438 57.337 10.8336 57.482C11.1054 57.6271 11.5945 57.754 11.9206 57.754C12.2285 57.7721 12.6814 57.8809 12.9351 58.0259C13.1887 58.171 13.5872 58.2797 13.8409 58.2979C14.0945 58.2979 14.6561 58.4066 15.109 58.5517C16.3046 58.9324 17.4459 59.2043 18.3699 59.3675C18.8228 59.44 19.3662 59.6032 19.5836 59.712C19.801 59.8389 20.2901 59.9295 20.6706 59.9295C21.051 59.9476 21.5583 60.0564 21.8119 60.2015C22.0655 60.3465 22.5728 60.4553 22.9532 60.4734C23.3336 60.4734 23.9314 60.6003 24.2938 60.7453C24.638 60.8904 25.2177 61.0173 25.5619 61.0173C25.888 61.0173 26.4677 61.1442 26.83 61.2892C27.1742 61.4343 27.7358 61.5612 28.0619 61.5612C28.388 61.5612 29.0039 61.6881 29.4206 61.8331C29.8372 61.9781 30.4532 62.1051 30.7793 62.1051C31.1054 62.1051 31.7213 62.232 32.138 62.377C32.5546 62.522 33.2068 62.6489 33.5872 62.6489C33.9677 62.6489 34.6199 62.7758 35.0365 62.9209C35.4532 63.0659 36.1597 63.1928 36.5764 63.1928C36.993 63.1928 37.6996 63.3197 38.1162 63.4648C38.5329 63.6098 39.2213 63.7367 39.6561 63.7367C40.0728 63.7367 40.8155 63.8636 41.3046 64.0086C41.7938 64.1537 42.5546 64.2806 43.0075 64.2806C43.4604 64.2806 44.2756 64.4075 44.8191 64.5525C45.3626 64.6976 46.2322 64.8245 46.7213 64.8245C47.2285 64.8245 48.1162 64.9514 48.7141 65.0964C49.3119 65.2415 50.2901 65.3684 50.888 65.3684C51.4858 65.3684 52.4641 65.4953 53.0619 65.6403C53.6597 65.7853 54.7648 65.8941 55.5438 65.9122C56.3046 65.9122 57.5728 66.0392 58.3517 66.1842C59.1307 66.3292 60.5438 66.4561 61.4858 66.4561C62.4278 66.4561 64.3843 66.583 65.8336 66.7281C69.5474 67.0907 85.5619 67.0907 89.8372 66.7281C91.5401 66.583 93.6959 66.4561 94.638 66.4561C95.58 66.4561 97.1017 66.3292 97.9894 66.1842C98.8952 66.0392 100.236 65.9122 100.979 65.9122C101.721 65.8941 102.863 65.7853 103.515 65.6403C104.167 65.4953 105.218 65.3684 105.87 65.3684C106.522 65.3684 107.5 65.2415 108.044 65.0964C108.587 64.9514 109.493 64.8245 110.037 64.8245C110.58 64.8245 111.486 64.6976 112.029 64.5525C112.573 64.4075 113.406 64.2806 113.859 64.2806C114.312 64.2806 115.091 64.1537 115.58 64.0086C116.069 63.8636 116.848 63.7367 117.301 63.7367C117.772 63.7367 118.497 63.6098 118.913 63.4648C119.33 63.3197 120.055 63.1928 120.526 63.1928C120.979 63.1928 121.685 63.0659 122.084 62.9209C122.482 62.7758 123.152 62.6671 123.551 62.6489C123.968 62.6489 124.656 62.522 125.073 62.377C125.489 62.232 126.105 62.1051 126.431 62.1051C126.758 62.1051 127.373 61.9781 127.79 61.8331C128.207 61.6881 128.823 61.5612 129.149 61.5612C129.475 61.5612 130.037 61.4343 130.381 61.2892C130.743 61.1442 131.323 61.0173 131.649 61.0173C131.993 61.0173 132.573 60.8904 132.917 60.7453C133.279 60.6003 133.877 60.4734 134.221 60.4734C134.584 60.4734 135.055 60.3827 135.254 60.274C135.453 60.1652 136.051 60.002 136.558 59.9295C137.428 59.7845 137.826 59.6938 140.018 59.1137C141.594 58.6967 142.537 58.461 143.279 58.2979C144.384 58.0622 145.58 57.754 146.178 57.5364C146.486 57.4276 147.047 57.3007 147.446 57.2282C147.844 57.1557 148.352 56.9925 148.569 56.8838C148.787 56.7569 149.149 56.6662 149.384 56.6662C149.62 56.6662 149.982 56.5393 150.181 56.3943C150.363 56.2492 150.634 56.1223 150.779 56.1223C151.16 56.1223 152.754 54.7626 153.406 53.9105C154.312 52.714 155.145 50.9735 155.145 50.2665C155.163 50.0489 155.272 49.6682 155.417 49.4144C155.562 49.1606 155.671 48.6892 155.689 48.3629C155.689 48.0366 155.779 47.5833 155.906 47.3658C156.015 47.1482 156.178 46.2236 156.268 45.3353C156.341 44.4288 156.486 43.0147 156.558 42.1626C156.649 41.3105 156.649 39.9689 156.558 39.1712C156.468 38.3735 156.323 37.032 156.232 36.1799C156.069 34.6207 155.87 33.6961 155.399 32.1733C155.254 31.7019 155.145 31.1943 155.145 31.0492C155.145 30.9042 155.037 30.5416 154.892 30.2515C154.747 29.9796 154.457 29.3269 154.221 28.8374C153.787 27.8947 152.029 25.973 151.305 25.6648C151.087 25.5741 150.761 25.411 150.616 25.3203C150.181 25.0846 149.149 24.7402 148.352 24.577C147.953 24.5045 147.392 24.3594 147.084 24.2507C146.377 24.015 145.109 23.6887 144.185 23.5074C143.787 23.4348 143.279 23.2717 143.062 23.1629C142.844 23.036 142.392 22.9453 142.066 22.9453C141.739 22.9272 141.268 22.8184 141.015 22.6734C140.761 22.5284 140.29 22.4196 139.964 22.4015C139.638 22.4015 139.076 22.2746 138.714 22.1295C138.37 21.9845 137.826 21.8576 137.537 21.8576C137.247 21.8576 136.721 21.7307 136.359 21.5856C136.015 21.4406 135.471 21.3137 135.181 21.3137C134.892 21.3137 134.366 21.1868 134.004 21.0418C133.66 20.8967 133.098 20.7698 132.772 20.7698C132.446 20.7698 131.884 20.6429 131.54 20.4979C131.178 20.3528 130.598 20.2259 130.236 20.2259C129.873 20.2259 129.294 20.099 128.931 19.954C128.587 19.8089 127.971 19.682 127.573 19.682C127.192 19.682 126.576 19.5551 126.214 19.4101C125.87 19.2651 125.218 19.1382 124.801 19.1382C124.384 19.1382 123.678 19.0112 123.261 18.8662C122.844 18.7212 122.192 18.5943 121.812 18.5943C121.45 18.5943 120.743 18.4674 120.254 18.3223C119.765 18.1773 119.04 18.0504 118.642 18.0504C118.243 18.0504 117.518 17.9235 117.029 17.7784C116.54 17.6334 115.761 17.5065 115.308 17.5065C114.855 17.5065 114.076 17.3796 113.587 17.2346C113.098 17.0895 112.283 16.9626 111.776 16.9626C111.25 16.9626 110.363 16.8357 109.801 16.6907C109.221 16.5456 108.279 16.4187 107.718 16.4187C107.156 16.4006 106.16 16.2918 105.508 16.1468C104.855 16.0018 103.805 15.893 103.152 15.8748C102.5 15.8748 101.287 15.7479 100.435 15.6029C99.5836 15.4579 98.2793 15.331 97.5365 15.331C96.7757 15.331 95.1996 15.2041 94.0039 15.059C91.4314 14.7508 72.8807 14.5514 66.4677 14.7871V14.7871ZM92.917 17.3071C98.1706 17.7059 105 18.3948 107.591 18.7937C108.297 18.9025 109.475 19.0656 110.218 19.1382C110.96 19.2107 112.156 19.3738 112.844 19.4826C115.417 19.9177 117.392 20.2259 117.917 20.2803C118.225 20.3166 118.986 20.4435 119.638 20.5704C120.29 20.6973 121.468 20.9148 122.265 21.0599C126.431 21.8394 128.026 22.1476 130.417 22.6734C131.015 22.8003 132.156 23.036 132.953 23.2173C134.312 23.4892 135.018 23.6524 137.301 24.2144C137.808 24.3413 138.497 24.5045 138.841 24.577C139.674 24.7583 141.069 25.1028 142.192 25.3928C142.7 25.5379 143.623 25.7735 144.276 25.9367C149.928 27.3327 150.979 27.8403 152.011 29.5626C152.573 30.4872 153.189 32.4089 153.805 35.1828C154.276 37.2858 154.294 44.3563 153.823 46.3324C152.718 50.8829 152.174 52.1338 150.761 53.2579C149.928 53.9105 148.787 54.4907 148.334 54.4907C148.171 54.4907 147.663 54.6176 147.192 54.7445C145.852 55.1796 144.783 55.4515 141.069 56.3761C140.489 56.5212 139.656 56.7387 139.203 56.8656C138.75 56.9925 138.062 57.1376 137.663 57.2101C137.265 57.2826 136.54 57.4458 136.033 57.5727C133.08 58.2979 130.471 58.8599 126.486 59.6576C125.761 59.8026 124.547 60.0383 123.805 60.2015C123.062 60.3465 122.283 60.4734 122.084 60.4734C121.884 60.4734 121.16 60.5822 120.453 60.7272C119.765 60.8722 118.37 61.1261 117.373 61.2892C116.377 61.4524 115.073 61.6699 114.475 61.7787C113.877 61.8875 112.826 62.0325 112.12 62.1051C111.431 62.1957 110.29 62.3407 109.584 62.4495C108.352 62.6308 105.888 62.939 102.156 63.3922C101.16 63.501 99.4025 63.6642 98.2612 63.7367C97.1199 63.8092 95.1633 63.9724 93.9133 64.0812C89.8916 64.4256 79.4749 64.6976 74.2575 64.5888C68.1525 64.4438 61.5039 64.1718 61.1235 64.0268C60.9785 63.9543 59.801 63.8455 58.4967 63.7367C54.0764 63.4285 44.8735 62.2138 40.1996 61.3436C39.6017 61.2348 38.7141 61.0898 38.2068 61.0173C37.2829 60.8904 35.9604 60.6547 33.6778 60.2015C32.9894 60.0564 31.7213 59.8207 30.8699 59.6576C29.4025 59.3675 28.1162 59.0956 25.7068 58.5698C25.109 58.4429 23.9677 58.1891 23.1706 58.0259C22.3735 57.8446 21.359 57.5908 20.9242 57.4639C20.4713 57.3189 19.9641 57.2101 19.7648 57.2101C19.5655 57.2101 18.9858 57.1013 18.4785 56.9563C17.609 56.7025 16.993 56.5393 14.167 55.8322C13.5329 55.6872 12.6271 55.4515 12.1199 55.3065C11.6307 55.1796 10.7249 54.9439 10.1271 54.7807C7.04739 53.9468 6.92058 53.8924 5.86985 52.859C4.56551 51.5899 4.16696 50.6835 3.27927 47.1482C1.99304 42.0901 2.1742 37.7209 3.84087 32.282C4.40246 30.451 4.71043 29.7983 5.45319 28.9462C6.4858 27.7497 6.95681 27.5502 11.1235 26.4443C11.667 26.2993 12.5365 26.0636 13.0257 25.9367C13.5329 25.7917 14.4568 25.556 15.109 25.3928C15.7612 25.2297 16.7032 24.9759 17.2104 24.8308C17.7177 24.6858 18.2974 24.577 18.4967 24.577C18.6959 24.577 19.2032 24.4682 19.6561 24.3232C20.0909 24.1963 21.1054 23.9425 21.9025 23.7612C22.6996 23.598 23.8046 23.3442 24.3481 23.2173C24.8916 23.0904 25.9967 22.8366 26.7938 22.6734C27.5909 22.5102 28.7684 22.2564 29.4206 22.1295C30.0728 21.9845 31.2865 21.7488 32.138 21.5856C32.9894 21.4225 34.2575 21.1868 34.9459 21.0418C35.6525 20.9148 37.0293 20.661 38.0256 20.4979C39.022 20.3347 40.417 20.0809 41.1054 19.9359C41.8119 19.7908 42.6271 19.682 42.917 19.682C43.2249 19.682 44.1126 19.5733 44.9097 19.4101C45.7068 19.2651 47.301 19.0294 48.4423 18.8843C49.5836 18.7393 51.4314 18.4855 52.5184 18.3223C53.6235 18.1773 54.8735 18.0504 55.3264 18.0504C55.7793 18.0504 56.6307 17.9597 57.2285 17.8691C57.8264 17.7603 59.6561 17.5971 61.3046 17.4884C62.9532 17.3796 65.0365 17.2164 65.9242 17.1439C68.4604 16.9264 89.6017 17.0533 92.917 17.3071V17.3071Z" fill="#333333"/>
<path d="M65.4709 19.4293C58.0253 19.9188 49.4202 20.8252 45.2536 21.5867C44.4383 21.7317 43.4963 21.8586 43.1702 21.8586C42.826 21.8586 42.2644 21.9493 41.9021 22.0399C41.5398 22.1487 40.6883 22.2937 39.9999 22.3844C39.3115 22.4931 38.2608 22.6563 37.663 22.7651C37.0651 22.8739 35.9238 23.0914 35.1267 23.2365C33.0796 23.6172 29.0398 24.433 27.1557 24.85C26.5579 24.9769 25.4166 25.2307 24.6195 25.3939C23.8224 25.557 22.7717 25.8108 22.2825 25.9559C21.8115 26.1009 21.2137 26.2097 20.9782 26.2097C20.7246 26.2097 20.2354 26.3366 19.8731 26.4816C19.5289 26.6267 19.0579 26.7536 18.8586 26.7536C18.6594 26.7536 18.0796 26.8624 17.5724 27.0074C17.0651 27.1524 16.1412 27.4062 15.5253 27.5513C13.7137 28.0045 12.192 28.4034 11.3043 28.6572C10.8514 28.7841 9.94558 29.0379 9.27529 29.2192C8.1521 29.5274 6.77529 30.4339 6.77529 30.8508C6.77529 30.9234 6.6666 31.1228 6.53979 31.2678C6.12312 31.7754 5.36225 34.4586 4.89123 37.0874C4.52892 39.0454 4.52892 42.073 4.87312 43.9041C5.34413 46.3878 5.72457 48.0376 5.97819 48.7809C6.12312 49.1979 6.23181 49.6511 6.23181 49.7962C6.23181 49.9593 6.5579 50.4488 6.93834 50.8839C7.77167 51.8267 8.07964 51.9536 12.2644 53.1139C15.4891 54.0022 15.5615 54.0203 20.6883 55.2894C21.884 55.5976 23.5144 55.9783 25.4347 56.3953C26.1775 56.5585 27.2101 56.8123 27.7173 56.9573C28.2246 57.1024 28.8224 57.2111 29.0579 57.2111C29.2934 57.2111 29.8912 57.3199 30.3985 57.4649C31.3586 57.7369 32.8804 58.0632 34.3115 58.2989C34.7644 58.3714 35.6521 58.5164 36.3043 58.6434C38.768 59.1147 40.2536 59.3685 42.0108 59.6586C43.0072 59.8218 44.4927 60.0575 45.2898 60.2025C46.105 60.3475 47.0108 60.4744 47.2825 60.4744C47.5724 60.4744 48.6231 60.6013 49.6195 60.7464C52.4999 61.1634 54.547 61.4172 56.5941 61.5622C57.6449 61.6529 59.4021 61.7979 60.4891 61.9067C64.5108 62.2874 69.9094 62.4687 77.2463 62.4687C87.2825 62.4687 94.9093 62.1242 101.522 61.3628C102.464 61.254 103.931 61.0908 104.783 61.0183C107.409 60.7645 114.312 59.7674 117.554 59.1691C118.152 59.0603 118.895 58.9334 119.185 58.8972C119.493 58.8609 120.38 58.7159 121.177 58.5527C121.975 58.4077 123.279 58.1539 124.076 58.0088C125.815 57.6644 127.754 57.2655 128.877 56.9936C129.33 56.8848 130.109 56.7398 130.598 56.6491C131.105 56.5766 131.757 56.4316 132.047 56.3409C132.355 56.2503 133.243 56.0327 134.04 55.8695C134.837 55.6883 135.779 55.4707 136.123 55.3619C136.467 55.235 137.083 55.09 137.482 55.0175C138.17 54.8905 138.623 54.7636 140.743 54.2198C142.754 53.694 143.877 53.3858 146.775 52.57C149.511 51.7904 150.217 51.1377 150.96 48.6903C151.938 45.4632 151.956 45.3907 151.956 40.6226C151.975 35.8546 151.884 35.22 150.942 32.2831C150.326 30.3613 149.801 29.9262 147.264 29.2192C146.667 29.0379 145.815 28.8022 145.362 28.6572C144.909 28.5303 144.022 28.2946 143.369 28.1314C142.246 27.8413 141.449 27.6238 139.565 27.098C139.112 26.9711 138.424 26.808 138.025 26.7354C137.355 26.5904 136.775 26.4635 134.221 25.8471C131.884 25.2851 131.232 25.14 129.873 24.85C125.978 24.0341 123.877 23.599 121.902 23.2365C121.105 23.0914 119.927 22.8739 119.275 22.747C118.623 22.62 117.862 22.4931 117.554 22.4569C117.264 22.4206 116.286 22.2756 115.38 22.1306C102.192 20.0094 90.5796 19.1211 76.7028 19.1573C72.5724 19.1754 67.518 19.3024 65.4709 19.4293V19.4293ZM74.3659 24.7412C74.7644 25.0675 74.8007 25.2307 74.8007 26.6448C74.8007 28.9835 74.9999 28.8747 69.8007 29.2011C67.4818 29.3642 64.6195 29.5999 63.4782 29.7449C62.3369 29.89 61.0869 30.0169 60.7065 30.0169C59.7101 30.0169 56.4854 30.5245 55.326 30.869C53.1159 31.5398 51.9927 32.4825 51.7934 33.8603C51.7391 34.2954 51.7028 37.7038 51.7391 41.4385L51.7934 48.237L52.3007 48.9078C52.6086 49.3067 53.2427 49.778 53.8405 50.0681C54.9999 50.612 57.3912 51.2284 58.3695 51.2284C58.7318 51.2284 59.9456 51.3372 61.0325 51.4822C64.7101 51.9898 68.8043 52.3162 71.0869 52.3162C74.4746 52.3162 75.0362 52.7513 74.855 55.2531C74.7463 56.776 74.2753 57.2111 72.826 57.2111C72.2101 57.2111 70.942 57.1205 69.9999 57.0117C69.0579 56.9211 67.4999 56.7579 66.5579 56.6854C64.3296 56.4859 62.6811 56.214 57.8623 55.3075C56.105 54.9812 54.6014 54.5642 53.7318 54.2016C53.4057 54.0566 53.0615 53.9478 52.9709 53.9478C52.5724 53.9478 50.2898 52.7694 49.5833 52.1893C48.5507 51.3734 47.7354 50.1406 47.4275 48.9803C47.1014 47.7657 47.0651 33.8966 47.3912 32.5913C47.663 31.431 48.6593 29.9625 49.6738 29.2192C50.5796 28.5665 52.6992 27.515 53.605 27.2793C53.913 27.2068 54.7282 26.9711 55.4166 26.7536C56.1231 26.5541 56.9746 26.3366 57.3188 26.2822C57.663 26.2459 58.5325 26.0828 59.2209 25.9377C62.2825 25.3213 67.6267 24.578 69.6376 24.5236C73.7318 24.3786 73.9311 24.3786 74.3659 24.7412V24.7412ZM89.1123 24.7593C89.5108 24.8681 90.4528 25.0313 91.1956 25.1038C91.9383 25.1944 93.0434 25.3757 93.6412 25.4845C94.2391 25.5933 95.3804 25.8108 96.1775 25.9559C99.2753 26.536 101.413 27.0074 103.424 27.5694C103.931 27.7144 104.529 27.8595 104.783 27.9139C105.507 28.077 106.413 28.7116 106.594 29.2192C106.92 30.0531 106.812 31.0503 106.341 31.576C105.924 32.0655 105.906 32.0836 104.946 31.8661C103.804 31.6304 101.612 31.2497 99.076 30.8327C98.0796 30.6695 96.5941 30.4339 95.797 30.2888C94.9818 30.1438 94.0398 30.0169 93.7137 30.0169C93.3695 30.0169 92.4456 29.89 91.6485 29.7449C89.4383 29.3461 86.3586 29.3824 85.3622 29.8356C83.5688 30.6333 83.5869 30.4701 83.5869 40.8039C83.5869 50.6664 83.5688 50.4851 84.8912 51.3553C85.634 51.8629 85.6883 51.8629 88.3695 51.8448C89.9999 51.8448 91.9565 51.7179 93.1883 51.5185C94.3296 51.3553 96.0869 51.0834 97.0833 50.9383C100.199 50.467 102.283 50.1225 103.605 49.8506C105.507 49.4698 106.159 49.5061 106.522 50.05C106.975 50.757 106.793 52.1893 106.141 52.86C105.851 53.1682 105.507 53.4039 105.362 53.4039C105.217 53.4039 104.728 53.5127 104.257 53.6577C101.848 54.4011 99.9818 54.818 94.547 55.8333C93.7499 55.9783 92.3188 56.2503 91.3767 56.4134C90.2173 56.6491 88.8043 56.7398 87.0289 56.7579C84.4202 56.7579 84.4021 56.7398 83.2246 56.1596C81.9565 55.5251 80.4891 54.2016 80.0362 53.3133C79.8731 53.0051 79.6014 52.298 79.4021 51.6998C79.076 50.7026 79.0579 49.9956 79.0579 40.7495C79.0579 29.7449 79.0579 29.7993 80.2898 27.8776C81.6666 25.7565 83.9673 24.6143 86.8478 24.5962C87.6992 24.5962 88.7137 24.6687 89.1123 24.7593V24.7593ZM44.2209 28.3127C44.4021 28.6028 44.5651 29.2736 44.6014 29.9262C44.6738 30.9596 44.6376 31.1047 44.1666 31.5941C43.8586 31.9023 43.0072 32.3918 42.192 32.7182C41.3949 33.0445 40.5072 33.4252 40.2354 33.5703C39.9456 33.7153 39.6014 33.8241 39.4746 33.8241C39.3478 33.8241 39.0036 33.9329 38.7137 34.0779C38.442 34.2229 37.8804 34.4586 37.4818 34.6036C37.0833 34.7487 36.105 35.1294 35.3079 35.4557C34.5108 35.7821 33.5325 36.1628 33.134 36.3078C31.2318 37.033 30.9238 37.1418 30.4166 37.3593C29.8731 37.595 28.8224 38.012 27.6086 38.4471C27.2644 38.574 26.3224 38.9366 25.5253 39.2629C23.9311 39.8975 22.9709 40.26 22.4999 40.4232C21.9746 40.5864 22.1195 40.8221 22.9528 41.1665C23.3695 41.3478 23.9673 41.5835 24.2572 41.7104C24.7644 41.928 25.4166 42.1818 27.0289 42.78C28.0978 43.1789 29.2753 43.6321 29.8731 43.8859C30.3804 44.1035 31.0325 44.3573 32.6449 44.9556C34.0036 45.4632 34.9637 45.8258 35.4891 46.0615C35.797 46.1884 36.3586 46.4059 36.7572 46.5691C37.1557 46.7141 37.8441 46.968 38.297 47.1493C38.7499 47.3124 39.3659 47.5662 39.6557 47.6931C39.9637 47.82 40.5615 48.0557 41.0144 48.237C43.442 49.1616 44.2028 49.5786 44.4383 50.0681C44.9093 51.1196 44.5108 53.3858 43.8405 53.4402C42.8441 53.4946 41.0688 53.0776 39.9637 52.5156C39.8007 52.4249 39.2934 52.2074 38.8405 52.0442C38.3876 51.8811 37.7898 51.6272 37.4818 51.5003C37.192 51.3734 36.576 51.1377 36.1231 50.9565C35.6702 50.7933 35.0724 50.5395 34.7644 50.4126C34.4746 50.2857 33.8949 50.0681 33.4963 49.9049C32.1014 49.3792 31.1412 48.9985 30.5978 48.7809C30.3079 48.654 29.7282 48.4183 29.3296 48.2733C28.9311 48.1282 27.9528 47.7475 27.1557 47.4212C26.3586 47.0949 25.3985 46.7323 25.0362 46.5872C23.7499 46.1159 22.8079 45.7352 22.2644 45.5176C21.9746 45.3907 21.3949 45.155 20.9963 45.01C18.913 44.2304 18.442 43.9766 18.0796 43.469C17.3731 42.4356 17.3369 39.2267 18.0253 38.0664C18.3695 37.5044 18.605 37.3593 19.9637 36.8336C21.9021 36.0903 22.3007 35.9452 22.8079 35.7277C23.1159 35.6008 23.7137 35.347 24.1666 35.1838C24.6195 35.0025 25.3079 34.7487 25.7065 34.6036C26.105 34.4405 26.6847 34.2229 26.9746 34.096C27.2825 33.9691 27.8441 33.7334 28.2427 33.5884C28.6412 33.4434 29.6195 33.0626 30.4166 32.7363C31.2137 32.41 32.192 32.0293 32.5905 31.8842C32.9891 31.7211 33.5688 31.5035 33.8586 31.3766C34.1666 31.2497 34.7282 31.014 35.1267 30.869C36.6122 30.307 38.9311 29.3824 40.5253 28.6753C40.9057 28.5121 41.3405 28.3852 41.5217 28.3852C41.6847 28.3671 42.0289 28.2583 42.2825 28.1133C43.0434 27.6782 43.8586 27.7688 44.2209 28.3127V28.3127ZM116.648 29.5636C118.478 30.5245 120.869 31.8117 123.043 33.0445C123.605 33.3527 124.493 33.8241 124.982 34.0779C125.489 34.3317 126.413 34.8393 127.065 35.2019C127.717 35.5645 128.985 36.2353 129.873 36.7067C130.779 37.1962 132.083 37.8851 132.772 38.2658C134.402 39.1723 135.96 40.0062 137.192 40.6589C137.717 40.9308 138.46 41.4203 138.804 41.7285L139.475 42.3087L139.148 44.2485C138.967 45.3182 138.768 46.2972 138.714 46.4422C138.569 46.8411 137.935 46.9317 137.591 46.6235C137.409 46.4603 137.228 46.3334 137.156 46.3334C137.101 46.3334 136.54 45.989 135.906 45.5539C135.272 45.1369 134.583 44.7018 134.384 44.5749C134.203 44.448 133.279 43.8859 132.355 43.3058C130.453 42.1093 130.507 42.1455 128.786 41.1665C128.098 40.7677 127.373 40.3507 127.21 40.26C127.047 40.1513 126.504 39.8612 126.033 39.6074C125.562 39.3354 124.873 38.9547 124.529 38.7553C124.185 38.5559 123.533 38.1752 123.08 37.9395C122.627 37.6857 121.975 37.3231 121.63 37.1236C121.286 36.9242 120.634 36.5616 120.181 36.3441C119.728 36.1084 118.967 35.6914 118.496 35.4195C118.007 35.1294 117.427 34.8756 117.228 34.8575L116.83 34.8212V39.2629C116.83 45.572 116.576 50.9927 116.25 51.7179C115.598 53.1501 112.373 53.2408 111.83 51.8267C111.685 51.4641 111.685 49.9049 111.83 46.4241C111.956 43.0157 111.956 39.8431 111.812 35.9634C111.63 30.597 111.63 30.3795 111.975 29.7993C112.464 28.9472 113.007 28.7116 114.293 28.8022C115.091 28.8747 115.725 29.0741 116.648 29.5636V29.5636ZM16.7209 33.0264C17.2101 33.3708 17.1738 33.7153 16.576 35.2744C16.0869 36.5072 15.4709 39.553 15.4709 40.677C15.4709 41.1484 15.5978 42.2543 15.7608 43.1608C16.0325 44.7018 16.2137 45.3 16.8659 46.9136C17.4275 48.2733 16.9383 48.6903 14.855 48.6903C12.826 48.6721 11.9927 48.2189 11.4492 46.7867C9.89124 42.7619 9.89124 38.6284 11.4492 34.6399C11.8115 33.7153 12.1014 33.389 12.8079 33.0264C13.6231 32.6275 16.1412 32.6275 16.7209 33.0264ZM144.728 33.0989C145.652 33.6609 146.214 35.1838 146.739 38.5015C146.993 40.0425 147.011 40.6408 146.83 41.8554C146.431 44.7924 146.304 45.572 146.105 45.9346C145.996 46.1521 145.906 46.4422 145.906 46.6054C145.906 47.1493 145 48.3277 144.384 48.5815C143.297 49.0347 141.812 49.1435 141.286 48.799C140.851 48.509 140.833 48.4183 140.924 47.5481C140.996 47.0223 141.159 46.0071 141.304 45.2638C141.467 44.3936 141.558 42.7619 141.558 40.5501C141.558 37.6857 141.485 36.9786 141.177 35.8183C140.598 33.7516 140.562 33.4977 140.924 33.0989C141.395 32.5731 143.877 32.5731 144.728 33.0989ZM68.4963 38.4108C68.6956 38.6103 68.8224 39.1541 68.8767 40.1331C68.9854 41.9098 68.7318 42.7982 68.0434 43.0157C67.355 43.2514 55.018 42.9795 54.3296 42.7075C54.0398 42.5988 53.7318 42.3993 53.6594 42.2906C53.4601 41.9823 53.4782 39.7343 53.6775 39.2085C53.9673 38.4471 54.7644 38.3202 60.8333 38.1752C67.4818 38.012 68.1159 38.0301 68.4963 38.4108V38.4108ZM94.2572 38.4471C100.815 38.7734 100.706 38.7372 100.924 40.0425C100.978 40.4051 100.96 41.0577 100.906 41.511C100.688 42.9432 100.779 42.9251 93.297 43.0883C89.692 43.1789 86.6122 43.197 86.4492 43.1426C85.797 42.9432 85.5072 40.0425 86.0144 38.8097C86.2862 38.1933 86.3043 38.1752 87.3188 38.1752C87.8985 38.1752 91.0144 38.3021 94.2572 38.4471V38.4471ZM156.956 53.2226C156.956 53.3133 157.047 53.4039 157.138 53.4039C157.246 53.4039 157.319 53.9478 157.319 54.6549C157.319 56.069 157.536 56.4316 157.862 55.5251C158.062 54.9631 158.08 54.9631 158.333 55.2894C158.46 55.4888 158.587 55.7064 158.587 55.797C158.587 55.8695 158.641 55.9421 158.732 55.9421C158.804 55.9421 158.877 55.6157 158.877 55.2169C158.895 54.528 158.877 54.4917 158.424 54.528C158.062 54.5642 157.953 54.5098 157.953 54.2198C157.953 53.9478 158.062 53.8753 158.369 53.8934C158.623 53.9297 158.768 53.839 158.768 53.6759C158.768 53.4946 158.569 53.4039 158.152 53.4039C157.808 53.4039 157.464 53.3133 157.409 53.2226C157.355 53.1139 157.228 53.0413 157.119 53.0413C157.029 53.0413 156.956 53.1139 156.956 53.2226V53.2226ZM159.583 53.6034C159.402 53.8753 159.638 54.0566 159.873 53.8209C160 53.694 160 53.5852 159.891 53.5127C159.783 53.4583 159.638 53.4946 159.583 53.6034ZM159.402 56.1234C159.221 56.3228 159.13 56.4859 159.203 56.4859C159.402 56.4859 159.909 55.9421 159.819 55.8333C159.764 55.797 159.583 55.9239 159.402 56.1234Z" fill="#333333"/>
</g>
<defs>
<clipPath id="clip0_1590_288">
<rect width="160" height="57.6623" fill="white" transform="translate(0 12)"/>
</clipPath>
</defs>
</svg>
