<svg width="111" height="40" viewBox="0 0 111 40" fill="none" xmlns="http://www.w3.org/2000/svg">
<path d="M38.6679 15.6436L33.2319 18.9777C33.0814 19.07 32.8918 19.0699 32.7413 18.9774L19.7375 10.9827C19.5871 10.8903 19.3975 10.8902 19.247 10.9825L6.20585 18.9825C6.05541 19.0747 5.86589 19.0747 5.71549 18.9823L0.255974 15.6299C0.0806903 15.5222 -0.0071514 15.3118 0.0435369 15.1125C0.908711 11.7098 2.65459 8.59645 5.10065 6.08368C5.25377 5.92638 5.49837 5.89853 5.68539 6.01348L13.6795 10.9266C13.8356 11.0226 14.0365 10.9102 14.0365 10.7269V1.099C14.0365 0.88527 14.1803 0.695189 14.3872 0.641453C16.0402 0.212033 17.7435 -0.00431838 19.4548 6.53006e-05C21.2387 6.53006e-05 23.0143 0.23896 24.7392 0.712864C24.9432 0.76889 25.0841 0.95769 25.0841 1.16917V10.5867C25.0841 10.7699 25.2848 10.8822 25.441 10.7864L33.2293 6.00821C33.4162 5.89356 33.6604 5.92136 33.8135 6.07832C36.2688 8.59613 38.0194 11.7186 38.8807 15.1267C38.9311 15.326 38.8431 15.5361 38.6679 15.6436Z" fill="#1A1926"/>
<path d="M38.8832 24.7872C38.0404 28.1954 36.3162 31.3262 33.8799 33.8569C33.7269 34.0158 33.4809 34.0444 33.293 33.9287L25.4416 29.0928C25.2855 28.9966 25.0844 29.1089 25.0844 29.2923V38.8308C25.0844 39.0423 24.9435 39.2311 24.7396 39.2871C23.0146 39.761 21.239 39.9999 19.4551 39.9999C17.7438 40.0043 16.0405 39.788 14.3875 39.3586C14.1806 39.3048 14.0368 39.1147 14.0368 38.901V29.1931C14.0368 29.0099 13.8361 28.8975 13.6799 28.9933L5.6121 33.9438C5.42443 34.059 5.179 34.0304 5.02614 33.8719C2.58954 31.3458 0.861119 28.2196 0.01368 24.816C-0.0358283 24.6172 0.0521846 24.4079 0.226853 24.3008L7.30614 19.9578L19.2426 12.6325C19.3931 12.5401 19.5828 12.5402 19.7332 12.6326L31.6416 19.9531L38.6702 24.2729C38.8444 24.38 38.9323 24.5887 38.8832 24.7872Z" fill="#1A1926"/>
<path d="M48.3721 18.234C48.3091 18.247 48.2439 18.2441 48.1824 18.2255C48.1209 18.2069 48.065 18.1732 48.0198 18.1275C47.9758 18.0811 47.9432 18.0251 47.9248 17.964C47.9063 17.9028 47.9023 17.8382 47.9133 17.7752V6.34671C47.9133 6.01082 48.0689 5.88792 48.3721 5.88792H52.4151C56.1017 5.88792 57.904 7.21102 57.904 10.0333C57.9275 10.7193 57.7408 11.3961 57.3689 11.973C56.997 12.5499 56.4576 12.9994 55.8231 13.2611L58.5185 17.6687C58.5929 17.7594 58.6373 17.8711 58.6454 17.9882C58.6454 18.1439 58.5021 18.234 58.199 18.234H55.9132C55.723 18.2638 55.5282 18.2277 55.3613 18.1316C55.1944 18.0355 55.0654 17.8851 54.9957 17.7056L52.1734 12.7901C52.1194 12.7039 52.0831 12.6078 52.0669 12.5075C52.0669 12.3846 52.1939 12.3108 52.4191 12.2781C53.7791 12.1183 54.7294 11.4588 54.7294 10.316C54.7294 9.17312 53.9102 8.55048 52.3495 8.55048H51.2394C51.0346 8.55048 50.9773 8.60374 50.9773 8.81674V17.7588C50.9773 18.0947 50.838 18.2176 50.5062 18.2176L48.3721 18.234Z" fill="#1A1926"/>
<path d="M68.2347 17.7547C68.2432 17.8185 68.2347 17.8835 68.2102 17.9431C68.189 18.0036 68.1539 18.0583 68.1078 18.1029C68.0606 18.1458 68.0047 18.178 67.9438 18.197C67.883 18.2162 67.8187 18.2218 67.7555 18.2134H60.3208C60.2602 18.2275 60.1971 18.2275 60.1365 18.2134C60.0787 18.1911 60.0259 18.1577 59.9808 18.1151C59.9358 18.0708 59.9017 18.0167 59.8811 17.957C59.8605 17.8973 59.854 17.8337 59.862 17.7711V6.34257C59.862 6.00668 60.0218 5.8838 60.3208 5.8838H67.7227C67.7847 5.86915 67.8492 5.86915 67.9112 5.8838C67.9727 5.90319 68.0289 5.93687 68.075 5.9821C68.1225 6.0255 68.1578 6.08058 68.1774 6.14186C68.1989 6.2022 68.2059 6.26674 68.1979 6.33028V8.23093C68.1979 8.57092 68.0586 8.68973 67.7227 8.68973H63.2087C62.9998 8.68973 62.9465 8.76343 62.9465 8.96006V10.3446C62.9465 10.5535 62.9998 10.6067 63.2087 10.6067H67.1615C67.4933 10.6067 67.6162 10.746 67.6162 11.0819V12.9703C67.6162 13.2693 67.4933 13.4249 67.1615 13.4249H63.2087C62.9998 13.4249 62.9465 13.4987 62.9465 13.6912V15.1413C62.9465 15.3338 62.9998 15.4034 63.2087 15.4034H67.7555C68.0914 15.4034 68.2347 15.5263 68.2347 15.8622L68.2347 17.7547Z" fill="#1A1926"/>
<path d="M75.0672 5.86743C79.3436 5.86743 81.8138 8.21867 81.8138 11.9012C81.8138 15.7434 79.2043 18.2135 74.76 18.2135H70.7252C70.6634 18.2298 70.5985 18.2298 70.5367 18.2135C70.4753 18.1964 70.42 18.1623 70.377 18.1152C70.3323 18.0702 70.2986 18.0156 70.2787 17.9554C70.264 17.8935 70.264 17.8289 70.2787 17.767V6.3385C70.2787 6.00261 70.4343 5.87972 70.7333 5.87972L75.0672 5.86743ZM73.3386 15.129C73.3386 15.3215 73.3877 15.3912 73.6007 15.3912H74.7681C77.3037 15.3912 78.6595 14.1213 78.6595 11.9872C78.6595 9.97595 77.3037 8.68565 74.8378 8.68565H73.6089C73.3959 8.68565 73.3468 8.75937 73.3468 8.95601L73.3386 15.129Z" fill="#1A1926"/>
<path d="M50.9772 33.4432C50.9772 33.7791 50.838 33.902 50.5062 33.902H48.372C48.3113 33.9134 48.2487 33.9101 48.1895 33.8923C48.1303 33.8745 48.0763 33.8427 48.032 33.7996C47.988 33.7532 47.9555 33.6972 47.937 33.6361C47.9185 33.5749 47.9146 33.5103 47.9255 33.4473V22.0188C47.9255 21.6829 48.0812 21.56 48.3843 21.56H52.5215C56.1562 21.56 57.9722 23.0483 57.9695 26.0249C57.9695 29.0357 56.0115 30.5881 52.4027 30.5881H51.2517C51.0469 30.5881 50.9895 30.6619 50.9895 30.8544L50.9772 33.4432ZM50.9772 27.4996C50.9772 27.6962 51.0346 27.7658 51.2394 27.7658H52.3904C53.9552 27.7658 54.7826 27.1801 54.7826 26.0372C54.7826 24.8943 54.0002 24.3782 52.3904 24.3782H51.2394C51.0346 24.3782 50.9772 24.4479 50.9772 24.6445V27.4996Z" fill="#1A1926"/>
<path d="M71.9623 27.7291C72.0156 31.4157 69.095 34.1847 65.3183 34.1315C61.5989 34.1847 58.6905 31.4157 58.7643 27.7659C58.7151 24.0793 61.6316 21.2734 65.3592 21.3267C69.1441 21.2734 72.0115 24.0425 71.9623 27.7291ZM68.7918 27.7291C68.7918 25.5826 67.309 24.1326 65.3551 24.1326C63.4012 24.1326 61.9347 25.5949 61.9347 27.7291C61.9347 29.8632 63.3766 31.2969 65.3346 31.2969C65.7979 31.3016 66.2573 31.2126 66.6853 31.0351C67.1133 30.8578 67.501 30.5957 67.8251 30.2646C68.1485 29.9321 68.4009 29.5373 68.5671 29.1043C68.7333 28.6712 68.8097 28.2089 68.7918 27.7454V27.7291Z" fill="#1A1926"/>
<path d="M74.1496 33.9021C74.0878 33.9184 74.0229 33.9184 73.9612 33.9021C73.9004 33.8855 73.8453 33.853 73.8014 33.8078C73.7557 33.7627 73.7219 33.7068 73.7033 33.6453C73.6847 33.5837 73.6818 33.5185 73.6949 33.4556V22.0271C73.6949 21.6912 73.8506 21.5683 74.1496 21.5683H76.296C76.6319 21.5683 76.7753 21.6912 76.7753 22.0271V33.4556C76.7753 33.7915 76.6319 33.9143 76.296 33.9143L74.1496 33.9021Z" fill="#1A1926"/>
<path d="M90.2235 26.9876V33.4433C90.2235 33.7792 90.0842 33.902 89.7481 33.902H87.6139C87.5523 33.9184 87.4874 33.9184 87.4255 33.902C87.3654 33.8845 87.3103 33.8521 87.266 33.8078C87.2219 33.7615 87.1895 33.7055 87.1707 33.6443C87.1523 33.5832 87.1484 33.5185 87.1594 33.4556V27.1064C87.1594 25.2549 86.2787 24.1612 84.6401 24.1612C83.0018 24.1612 82.1374 25.2549 82.1374 27.1064V33.4556C82.1374 33.7915 81.9939 33.9143 81.6623 33.9143H79.524C79.4635 33.9307 79.4001 33.9307 79.3397 33.9143C79.2778 33.8978 79.2213 33.8652 79.176 33.8199C79.1308 33.7746 79.098 33.7182 79.0817 33.6563C79.0671 33.5943 79.0671 33.5298 79.0817 33.4679V26.9876C79.0817 23.301 81.3552 21.3266 84.7017 21.3266C87.958 21.3225 90.2235 23.215 90.2235 26.9876Z" fill="#1A1926"/>
<path d="M97.8054 24.3783C97.6128 24.3783 97.5431 24.4479 97.5431 24.6445V33.4432C97.5431 33.7423 97.4163 33.902 97.0803 33.902H94.9297C94.8693 33.916 94.8062 33.916 94.7455 33.902C94.6868 33.8815 94.6335 33.8479 94.5898 33.8037C94.5451 33.7588 94.5115 33.7041 94.4916 33.644C94.4776 33.5833 94.4776 33.5203 94.4916 33.4596V24.6445C94.4916 24.4479 94.4219 24.3783 94.2293 24.3783H91.448C91.3846 24.3887 91.3197 24.3841 91.2587 24.3649C91.1974 24.3457 91.1417 24.3124 91.0956 24.2677C91.0507 24.2238 91.0182 24.1686 91.0015 24.1079C90.9852 24.0462 90.9852 23.9812 91.0015 23.9195V22.0147C91.0015 21.6789 91.1572 21.556 91.4602 21.556H100.624C100.955 21.556 101.082 21.6789 101.082 22.0147V23.9195C101.082 24.2185 100.955 24.3783 100.624 24.3783H97.8054Z" fill="#1A1926"/>
<path d="M110.958 23.1944C110.959 23.3231 110.917 23.4484 110.84 23.5508L109.885 25.0664C109.779 25.2221 109.676 25.3122 109.549 25.3122C109.427 25.2997 109.312 25.2512 109.217 25.1729C108.429 24.5149 107.442 24.1412 106.416 24.112C105.482 24.112 104.896 24.5216 104.896 25.1033C104.896 25.6849 105.424 25.984 106.977 26.3526C109.721 27.0244 110.995 28.0648 110.995 30.1458C110.995 32.6322 109.037 34.1314 106.08 34.1314C104.451 34.1591 102.861 33.6302 101.574 32.6322C101.503 32.5905 101.443 32.533 101.398 32.4642C101.351 32.3968 101.32 32.3198 101.308 32.2389C101.317 32.0987 101.365 31.9638 101.447 31.8498L102.365 30.3833C102.396 30.3118 102.445 30.2496 102.508 30.2031C102.57 30.1586 102.641 30.1291 102.717 30.1171C102.844 30.1343 102.963 30.1901 103.057 30.2768C103.923 30.9461 104.981 31.3195 106.076 31.3419C107.206 31.3419 107.825 30.9322 107.825 30.3342C107.825 29.7361 107.313 29.4494 105.605 29.0479C103.032 28.4335 101.725 27.4422 101.725 25.2753C101.725 22.7889 103.688 21.3225 106.428 21.3225C107.999 21.3061 109.526 21.8426 110.741 22.8381C110.802 22.8737 110.853 22.9245 110.889 22.9855C110.93 23.0475 110.955 23.1198 110.958 23.1944Z" fill="#1A1926"/>
</svg>
